<svg width="193" height="60" viewBox="0 0 193 60" fill="none" xmlns="http://www.w3.org/2000/svg">
<g filter="url(#filter0_d)">
<rect x="6" width="187" height="53.6302" rx="16" fill="#FFD3F3"/>
</g>
<path d="M45.63 36H41.013L33.291 24.309V36H28.674V17.046H33.291L41.013 28.791V17.046H45.63V36ZM63.1787 28.224C63.1787 28.656 63.1517 29.106 63.0977 29.574H52.6487C52.7207 30.51 53.0177 31.23 53.5397 31.734C54.0797 32.22 54.7367 32.463 55.5107 32.463C56.6627 32.463 57.4637 31.977 57.9137 31.005H62.8277C62.5757 31.995 62.1167 32.886 61.4507 33.678C60.8027 34.47 59.9837 35.091 58.9937 35.541C58.0037 35.991 56.8967 36.216 55.6727 36.216C54.1967 36.216 52.8827 35.901 51.7307 35.271C50.5787 34.641 49.6787 33.741 49.0307 32.571C48.3827 31.401 48.0587 30.033 48.0587 28.467C48.0587 26.901 48.3737 25.533 49.0037 24.363C49.6517 23.193 50.5517 22.293 51.7037 21.663C52.8557 21.033 54.1787 20.718 55.6727 20.718C57.1307 20.718 58.4267 21.024 59.5607 21.636C60.6947 22.248 61.5767 23.121 62.2067 24.255C62.8547 25.389 63.1787 26.712 63.1787 28.224ZM58.4537 27.009C58.4537 26.217 58.1837 25.587 57.6437 25.119C57.1037 24.651 56.4287 24.417 55.6187 24.417C54.8447 24.417 54.1877 24.642 53.6477 25.092C53.1257 25.542 52.8017 26.181 52.6757 27.009H58.4537ZM74.5244 36L71.6354 31.815L69.2054 36H64.2104L69.1784 28.305L64.0754 20.934H69.2594L72.1484 25.092L74.5784 20.934H79.5734L74.5244 28.521L79.7084 36H74.5244ZM89.8845 32.085V36H87.5355C85.8615 36 84.5565 35.595 83.6205 34.785C82.6845 33.957 82.2165 32.616 82.2165 30.762V24.768H80.3805V20.934H82.2165V17.262H86.8335V20.934H89.8575V24.768H86.8335V30.816C86.8335 31.266 86.9415 31.59 87.1575 31.788C87.3735 31.986 87.7335 32.085 88.2375 32.085H89.8845Z" fill="#AF8066"/>
<path d="M147.293 17.7425C147.13 17.9044 147.002 18.0967 146.914 18.3084C146.826 18.5201 146.781 18.7471 146.781 18.9763C146.781 19.2055 146.826 19.4324 146.914 19.6441C147.002 19.8558 147.13 20.0481 147.293 20.21L154.083 27L147.293 33.79C146.965 34.1172 146.782 34.561 146.782 35.0238C146.782 35.4865 146.965 35.9303 147.293 36.2575C147.62 36.5847 148.064 36.7685 148.526 36.7685C148.989 36.7685 149.433 36.5847 149.76 36.2575L157.793 28.225C157.955 28.0631 158.083 27.8708 158.171 27.6591C158.259 27.4474 158.304 27.2205 158.304 26.9913C158.304 26.7621 158.259 26.5351 158.171 26.3234C158.083 26.1117 157.955 25.9194 157.793 25.7575L149.76 17.725C149.095 17.06 147.975 17.06 147.293 17.7425Z" fill="#AF8066"/>
<defs>
<filter id="filter0_d" x="0" y="0" width="193" height="59.6302" filterUnits="userSpaceOnUse" color-interpolation-filters="sRGB">
<feFlood flood-opacity="0" result="BackgroundImageFix"/>
<feColorMatrix in="SourceAlpha" type="matrix" values="0 0 0 0 0 0 0 0 0 0 0 0 0 0 0 0 0 0 127 0" result="hardAlpha"/>
<feOffset dx="-6" dy="6"/>
<feComposite in2="hardAlpha" operator="out"/>
<feColorMatrix type="matrix" values="0 0 0 0 0.979311 0 0 0 0 0.53046 0 0 0 0 0.853633 0 0 0 1 0"/>
<feBlend mode="normal" in2="BackgroundImageFix" result="effect1_dropShadow"/>
<feBlend mode="normal" in="SourceGraphic" in2="effect1_dropShadow" result="shape"/>
</filter>
</defs>
</svg>
