<svg width="261" height="60" viewBox="0 0 261 60" fill="none" xmlns="http://www.w3.org/2000/svg">
<g filter="url(#filter0_d_41:2010)">
<rect x="6" width="255" height="54" rx="16" fill="#FFD3F3"/>
</g>
<path d="M97.728 29.72C97.728 28.2293 98.0053 26.9207 98.56 25.794C99.132 24.6673 99.9033 23.8007 100.874 23.194C101.845 22.5873 102.928 22.284 104.124 22.284C105.147 22.284 106.039 22.492 106.802 22.908C107.582 23.324 108.18 23.87 108.596 24.546V22.492H113.042V37H108.596V34.946C108.163 35.622 107.556 36.168 106.776 36.584C106.013 37 105.121 37.208 104.098 37.208C102.919 37.208 101.845 36.9047 100.874 36.298C99.9033 35.674 99.132 34.7987 98.56 33.672C98.0053 32.528 97.728 31.2107 97.728 29.72ZM108.596 29.746C108.596 28.6367 108.284 27.7613 107.66 27.12C107.053 26.4787 106.308 26.158 105.424 26.158C104.54 26.158 103.786 26.4787 103.162 27.12C102.555 27.744 102.252 28.6107 102.252 29.72C102.252 30.8293 102.555 31.7133 103.162 32.372C103.786 33.0133 104.54 33.334 105.424 33.334C106.308 33.334 107.053 33.0133 107.66 32.372C108.284 31.7307 108.596 30.8553 108.596 29.746ZM115.374 29.72C115.374 28.2293 115.652 26.9207 116.206 25.794C116.778 24.6673 117.55 23.8007 118.52 23.194C119.491 22.5873 120.574 22.284 121.77 22.284C122.724 22.284 123.59 22.4833 124.37 22.882C125.168 23.2807 125.792 23.818 126.242 24.494V17.76H130.688V37H126.242V34.92C125.826 35.6133 125.228 36.168 124.448 36.584C123.686 37 122.793 37.208 121.77 37.208C120.574 37.208 119.491 36.9047 118.52 36.298C117.55 35.674 116.778 34.7987 116.206 33.672C115.652 32.528 115.374 31.2107 115.374 29.72ZM126.242 29.746C126.242 28.6367 125.93 27.7613 125.306 27.12C124.7 26.4787 123.954 26.158 123.07 26.158C122.186 26.158 121.432 26.4787 120.808 27.12C120.202 27.744 119.898 28.6107 119.898 29.72C119.898 30.8293 120.202 31.7133 120.808 32.372C121.432 33.0133 122.186 33.334 123.07 33.334C123.954 33.334 124.7 33.0133 125.306 32.372C125.93 31.7307 126.242 30.8553 126.242 29.746ZM133.021 29.72C133.021 28.2293 133.298 26.9207 133.853 25.794C134.425 24.6673 135.196 23.8007 136.167 23.194C137.138 22.5873 138.221 22.284 139.417 22.284C140.37 22.284 141.237 22.4833 142.017 22.882C142.814 23.2807 143.438 23.818 143.889 24.494V17.76H148.335V37H143.889V34.92C143.473 35.6133 142.875 36.168 142.095 36.584C141.332 37 140.44 37.208 139.417 37.208C138.221 37.208 137.138 36.9047 136.167 36.298C135.196 35.674 134.425 34.7987 133.853 33.672C133.298 32.528 133.021 31.2107 133.021 29.72ZM143.889 29.746C143.889 28.6367 143.577 27.7613 142.953 27.12C142.346 26.4787 141.601 26.158 140.717 26.158C139.833 26.158 139.079 26.4787 138.455 27.12C137.848 27.744 137.545 28.6107 137.545 29.72C137.545 30.8293 137.848 31.7133 138.455 32.372C139.079 33.0133 139.833 33.334 140.717 33.334C141.601 33.334 142.346 33.0133 142.953 32.372C143.577 31.7307 143.889 30.8553 143.889 29.746ZM165.147 33.23V37H162.885C161.273 37 160.017 36.61 159.115 35.83C158.214 35.0327 157.763 33.7413 157.763 31.956V26.184H155.995V22.492H157.763V18.956H162.209V22.492H165.121V26.184H162.209V32.008C162.209 32.4413 162.313 32.7533 162.521 32.944C162.729 33.1347 163.076 33.23 163.561 33.23H165.147ZM174.228 37.208C172.806 37.208 171.524 36.9047 170.38 36.298C169.253 35.6913 168.36 34.8247 167.702 33.698C167.06 32.5713 166.74 31.254 166.74 29.746C166.74 28.2553 167.069 26.9467 167.728 25.82C168.386 24.676 169.288 23.8007 170.432 23.194C171.576 22.5873 172.858 22.284 174.28 22.284C175.701 22.284 176.984 22.5873 178.128 23.194C179.272 23.8007 180.173 24.676 180.832 25.82C181.49 26.9467 181.82 28.2553 181.82 29.746C181.82 31.2367 181.482 32.554 180.806 33.698C180.147 34.8247 179.237 35.6913 178.076 36.298C176.932 36.9047 175.649 37.208 174.228 37.208ZM174.228 33.36C175.077 33.36 175.796 33.048 176.386 32.424C176.992 31.8 177.296 30.9073 177.296 29.746C177.296 28.5847 177.001 27.692 176.412 27.068C175.84 26.444 175.129 26.132 174.28 26.132C173.413 26.132 172.694 26.444 172.122 27.068C171.55 27.6747 171.264 28.5673 171.264 29.746C171.264 30.9073 171.541 31.8 172.096 32.424C172.668 33.048 173.378 33.36 174.228 33.36ZM188.804 29.746C188.804 28.238 189.108 26.9207 189.714 25.794C190.338 24.6673 191.196 23.8007 192.288 23.194C193.398 22.5873 194.663 22.284 196.084 22.284C197.904 22.284 199.421 22.7607 200.634 23.714C201.865 24.6673 202.671 26.0107 203.052 27.744H198.32C197.922 26.6347 197.15 26.08 196.006 26.08C195.192 26.08 194.542 26.4007 194.056 27.042C193.571 27.666 193.328 28.5673 193.328 29.746C193.328 30.9247 193.571 31.8347 194.056 32.476C194.542 33.1 195.192 33.412 196.006 33.412C197.15 33.412 197.922 32.8573 198.32 31.748H203.052C202.671 33.4467 201.865 34.7813 200.634 35.752C199.404 36.7227 197.887 37.208 196.084 37.208C194.663 37.208 193.398 36.9047 192.288 36.298C191.196 35.6913 190.338 34.8247 189.714 33.698C189.108 32.5713 188.804 31.254 188.804 29.746ZM204.546 29.72C204.546 28.2293 204.824 26.9207 205.378 25.794C205.95 24.6673 206.722 23.8007 207.692 23.194C208.663 22.5873 209.746 22.284 210.942 22.284C211.965 22.284 212.858 22.492 213.62 22.908C214.4 23.324 214.998 23.87 215.414 24.546V22.492H219.86V37H215.414V34.946C214.981 35.622 214.374 36.168 213.594 36.584C212.832 37 211.939 37.208 210.916 37.208C209.738 37.208 208.663 36.9047 207.692 36.298C206.722 35.674 205.95 34.7987 205.378 33.672C204.824 32.528 204.546 31.2107 204.546 29.72ZM215.414 29.746C215.414 28.6367 215.102 27.7613 214.478 27.12C213.872 26.4787 213.126 26.158 212.242 26.158C211.358 26.158 210.604 26.4787 209.98 27.12C209.374 27.744 209.07 28.6107 209.07 29.72C209.07 30.8293 209.374 31.7133 209.98 32.372C210.604 33.0133 211.358 33.334 212.242 33.334C213.126 33.334 213.872 33.0133 214.478 32.372C215.102 31.7307 215.414 30.8553 215.414 29.746ZM227.523 24.91C228.043 24.1127 228.693 23.4887 229.473 23.038C230.253 22.57 231.12 22.336 232.073 22.336V27.042H230.851C229.742 27.042 228.91 27.2847 228.355 27.77C227.8 28.238 227.523 29.07 227.523 30.266V37H223.077V22.492H227.523V24.91ZM242.284 33.23V37H240.022C238.41 37 237.153 36.61 236.252 35.83C235.351 35.0327 234.9 33.7413 234.9 31.956V26.184H233.132V22.492H234.9V18.956H239.346V22.492H242.258V26.184H239.346V32.008C239.346 32.4413 239.45 32.7533 239.658 32.944C239.866 33.1347 240.213 33.23 240.698 33.23H242.284Z" fill="#AF8066"/>
<g clip-path="url(#clip0_41:2010)">
<path d="M34.1647 37.2236C32.1466 37.2236 30.5107 38.8596 30.5107 40.8776C30.5107 42.8956 32.1467 44.5315 34.1647 44.5315C36.1827 44.5315 37.8186 42.8955 37.8186 40.8776C37.8187 38.8596 36.1827 37.2236 34.1647 37.2236ZM34.1647 42.9076C33.0436 42.9076 32.1347 41.9988 32.1347 40.8776C32.1347 39.7565 33.0436 38.8477 34.1647 38.8477C35.2858 38.8477 36.1946 39.7565 36.1946 40.8776C36.1947 41.9988 35.2858 42.9076 34.1647 42.9076Z" fill="#AF8066"/>
<path d="M49.5924 37.2236C47.5744 37.2236 45.9385 38.8596 45.9385 40.8776C45.9385 42.8956 47.5744 44.5315 49.5924 44.5315C51.6104 44.5315 53.2463 42.8955 53.2463 40.8776C53.2463 38.8596 51.6105 37.2236 49.5924 37.2236ZM49.5924 42.9076C48.4713 42.9076 47.5625 41.9988 47.5625 40.8776C47.5625 39.7565 48.4713 38.8477 49.5924 38.8477C50.7135 38.8477 51.6224 39.7565 51.6224 40.8776C51.6224 41.9988 50.7135 42.9076 49.5924 42.9076Z" fill="#AF8066"/>
<path d="M57.8345 15.9089C57.6654 15.7241 57.434 15.6085 57.1849 15.584L30.7546 15.2186L30.0238 12.9856C29.5089 11.4929 28.1111 10.4852 26.5322 10.4684H23.812C23.3635 10.4684 23 10.832 23 11.2804C23 11.7289 23.3635 12.0924 23.812 12.0924H26.5322C27.415 12.1119 28.1924 12.6788 28.481 13.5134L33.6371 29.0631L33.2312 29.9969C32.7784 31.1646 32.9144 32.4788 33.5966 33.529C34.2723 34.5606 35.409 35.1972 36.6416 35.2342H52.4349C52.8833 35.2342 53.2469 34.8707 53.2469 34.4222C53.2469 33.9738 52.8833 33.6103 52.4349 33.6103H36.6415C35.9454 33.5928 35.3047 33.2267 34.9363 32.6358C34.572 32.0522 34.4972 31.3333 34.7333 30.687L35.0581 29.9562L52.1506 28.1698C54.0281 27.963 55.5725 26.5975 56.0076 24.7594L57.9564 16.5989C58.0442 16.3639 57.9976 16.0996 57.8345 15.9089ZM54.4242 24.3941C54.1606 25.5773 53.156 26.4501 51.9476 26.5459L35.0581 28.2917L31.2824 16.8426L56.1699 17.208L54.4242 24.3941Z" fill="#AF8066"/>
</g>
<defs>
<filter id="filter0_d_41:2010" x="0" y="0" width="261" height="60" filterUnits="userSpaceOnUse" color-interpolation-filters="sRGB">
<feFlood flood-opacity="0" result="BackgroundImageFix"/>
<feColorMatrix in="SourceAlpha" type="matrix" values="0 0 0 0 0 0 0 0 0 0 0 0 0 0 0 0 0 0 127 0" result="hardAlpha"/>
<feOffset dx="-6" dy="6"/>
<feComposite in2="hardAlpha" operator="out"/>
<feColorMatrix type="matrix" values="0 0 0 0 0.979311 0 0 0 0 0.53046 0 0 0 0 0.853633 0 0 0 1 0"/>
<feBlend mode="normal" in2="BackgroundImageFix" result="effect1_dropShadow_41:2010"/>
<feBlend mode="normal" in="SourceGraphic" in2="effect1_dropShadow_41:2010" result="shape"/>
</filter>
<clipPath id="clip0_41:2010">
<rect width="35" height="35" fill="white" transform="translate(23 10)"/>
</clipPath>
</defs>
</svg>
