<svg width="58" height="58" viewBox="0 0 58 58" fill="none" xmlns="http://www.w3.org/2000/svg">
<path d="M35.5008 16.2158C35.7248 16.4394 35.9026 16.705 36.0238 16.9973C36.1451 17.2897 36.2075 17.6031 36.2075 17.9196C36.2075 18.2361 36.1451 18.5495 36.0238 18.8418C35.9026 19.1342 35.7248 19.3997 35.5008 19.6233L26.1241 29L35.5008 38.3766C35.9526 38.8285 36.2065 39.4414 36.2065 40.0804C36.2065 40.7194 35.9526 41.3323 35.5008 41.7841C35.0489 42.236 34.4361 42.4899 33.797 42.4899C33.158 42.4899 32.5451 42.236 32.0933 41.7841L21.0008 30.6916C20.7767 30.4681 20.599 30.2025 20.4777 29.9102C20.3565 29.6178 20.294 29.3044 20.294 28.9879C20.294 28.6714 20.3565 28.358 20.4777 28.0656C20.599 27.7733 20.7767 27.5077 21.0008 27.2841L32.0933 16.1916C33.0116 15.2733 34.5583 15.2733 35.5008 16.2158Z" fill="#FA87DA"/>
</svg>
