<svg width="172" height="51" viewBox="0 0 172 51" fill="none" xmlns="http://www.w3.org/2000/svg">
<g filter="url(#filter0_d_46:2960)">
<rect x="6" width="166" height="45" rx="16" fill="#FFD3F3"/>
</g>
<path d="M33.644 24.583C33.644 23.249 33.9123 22.0837 34.449 21.087C35.001 20.0903 35.76 19.3237 36.726 18.787C37.7073 18.2503 38.8267 17.982 40.084 17.982C41.694 17.982 43.0357 18.4037 44.109 19.247C45.1977 20.0903 45.9107 21.2787 46.248 22.812H42.062C41.7093 21.8307 41.027 21.34 40.015 21.34C39.2943 21.34 38.7193 21.6237 38.29 22.191C37.8607 22.743 37.646 23.5403 37.646 24.583C37.646 25.6257 37.8607 26.4307 38.29 26.998C38.7193 27.55 39.2943 27.826 40.015 27.826C41.027 27.826 41.7093 27.3353 42.062 26.354H46.248C45.9107 27.8567 45.1977 29.0373 44.109 29.896C43.0203 30.7547 41.6787 31.184 40.084 31.184C38.8267 31.184 37.7073 30.9157 36.726 30.379C35.76 29.8423 35.001 29.0757 34.449 28.079C33.9123 27.0823 33.644 25.917 33.644 24.583ZM56.2408 18.028C57.7128 18.028 58.8934 18.5187 59.7828 19.5C60.6721 20.466 61.1168 21.8 61.1168 23.502V31H57.2068V24.031C57.2068 23.1723 56.9844 22.5053 56.5398 22.03C56.0951 21.5547 55.4971 21.317 54.7458 21.317C53.9944 21.317 53.3964 21.5547 52.9518 22.03C52.5071 22.5053 52.2848 23.1723 52.2848 24.031V31H48.3518V13.98H52.2848V19.891C52.6834 19.3237 53.2278 18.8713 53.9178 18.534C54.6078 18.1967 55.3821 18.028 56.2408 18.028ZM75.9478 24.376C75.9478 24.744 75.9248 25.1273 75.8788 25.526H66.9778C67.0392 26.3233 67.2922 26.9367 67.7368 27.366C68.1968 27.78 68.7565 27.987 69.4158 27.987C70.3972 27.987 71.0795 27.573 71.4628 26.745H75.6488C75.4342 27.5883 75.0432 28.3473 74.4758 29.022C73.9238 29.6967 73.2262 30.2257 72.3828 30.609C71.5395 30.9923 70.5965 31.184 69.5538 31.184C68.2965 31.184 67.1772 30.9157 66.1958 30.379C65.2145 29.8423 64.4478 29.0757 63.8958 28.079C63.3438 27.0823 63.0678 25.917 63.0678 24.583C63.0678 23.249 63.3362 22.0837 63.8728 21.087C64.4248 20.0903 65.1915 19.3237 66.1728 18.787C67.1542 18.2503 68.2812 17.982 69.5538 17.982C70.7958 17.982 71.8998 18.2427 72.8658 18.764C73.8318 19.2853 74.5832 20.029 75.1198 20.995C75.6718 21.961 75.9478 23.088 75.9478 24.376ZM71.9228 23.341C71.9228 22.6663 71.6928 22.1297 71.2328 21.731C70.7728 21.3323 70.1978 21.133 69.5078 21.133C68.8485 21.133 68.2888 21.3247 67.8288 21.708C67.3842 22.0913 67.1082 22.6357 67.0008 23.341H71.9228ZM77.2407 24.583C77.2407 23.249 77.509 22.0837 78.0457 21.087C78.5977 20.0903 79.3567 19.3237 80.3227 18.787C81.304 18.2503 82.4233 17.982 83.6807 17.982C85.2907 17.982 86.6323 18.4037 87.7057 19.247C88.7943 20.0903 89.5073 21.2787 89.8447 22.812H85.6587C85.306 21.8307 84.6237 21.34 83.6117 21.34C82.891 21.34 82.316 21.6237 81.8867 22.191C81.4573 22.743 81.2427 23.5403 81.2427 24.583C81.2427 25.6257 81.4573 26.4307 81.8867 26.998C82.316 27.55 82.891 27.826 83.6117 27.826C84.6237 27.826 85.306 27.3353 85.6587 26.354H89.8447C89.5073 27.8567 88.7943 29.0373 87.7057 29.896C86.617 30.7547 85.2753 31.184 83.6807 31.184C82.4233 31.184 81.304 30.9157 80.3227 30.379C79.3567 29.8423 78.5977 29.0757 78.0457 28.079C77.509 27.0823 77.2407 25.917 77.2407 24.583ZM99.7915 31L95.8815 25.618V31H91.9485V13.98H95.8815V23.387L99.7685 18.166H104.621L99.2855 24.606L104.667 31H99.7915ZM112.008 31.184C110.751 31.184 109.616 30.9157 108.604 30.379C107.608 29.8423 106.818 29.0757 106.235 28.079C105.668 27.0823 105.384 25.917 105.384 24.583C105.384 23.2643 105.676 22.1067 106.258 21.11C106.841 20.098 107.638 19.3237 108.65 18.787C109.662 18.2503 110.797 17.982 112.054 17.982C113.312 17.982 114.446 18.2503 115.458 18.787C116.47 19.3237 117.268 20.098 117.85 21.11C118.433 22.1067 118.724 23.2643 118.724 24.583C118.724 25.9017 118.425 27.067 117.827 28.079C117.245 29.0757 116.44 29.8423 115.412 30.379C114.4 30.9157 113.266 31.184 112.008 31.184ZM112.008 27.78C112.76 27.78 113.396 27.504 113.917 26.952C114.454 26.4 114.722 25.6103 114.722 24.583C114.722 23.5557 114.462 22.766 113.94 22.214C113.434 21.662 112.806 21.386 112.054 21.386C111.288 21.386 110.651 21.662 110.145 22.214C109.639 22.7507 109.386 23.5403 109.386 24.583C109.386 25.6103 109.632 26.4 110.122 26.952C110.628 27.504 111.257 27.78 112.008 27.78ZM133.484 18.166V31H129.551V29.252C129.152 29.8193 128.608 30.2793 127.918 30.632C127.243 30.9693 126.492 31.138 125.664 31.138C124.682 31.138 123.816 30.9233 123.065 30.494C122.313 30.0493 121.731 29.413 121.317 28.585C120.903 27.757 120.696 26.7833 120.696 25.664V18.166H124.606V25.135C124.606 25.9937 124.828 26.6607 125.273 27.136C125.717 27.6113 126.315 27.849 127.067 27.849C127.833 27.849 128.439 27.6113 128.884 27.136C129.328 26.6607 129.551 25.9937 129.551 25.135V18.166H133.484ZM143.462 27.665V31H141.461C140.035 31 138.923 30.655 138.126 29.965C137.328 29.2597 136.93 28.1173 136.93 26.538V21.432H135.366V18.166H136.93V15.038H140.863V18.166H143.439V21.432H140.863V26.584C140.863 26.9673 140.955 27.2433 141.139 27.412C141.323 27.5807 141.629 27.665 142.059 27.665H143.462Z" fill="#AF8066"/>
<defs>
<filter id="filter0_d_46:2960" x="0" y="0" width="172" height="51" filterUnits="userSpaceOnUse" color-interpolation-filters="sRGB">
<feFlood flood-opacity="0" result="BackgroundImageFix"/>
<feColorMatrix in="SourceAlpha" type="matrix" values="0 0 0 0 0 0 0 0 0 0 0 0 0 0 0 0 0 0 127 0" result="hardAlpha"/>
<feOffset dx="-6" dy="6"/>
<feComposite in2="hardAlpha" operator="out"/>
<feColorMatrix type="matrix" values="0 0 0 0 0.979311 0 0 0 0 0.53046 0 0 0 0 0.853633 0 0 0 1 0"/>
<feBlend mode="normal" in2="BackgroundImageFix" result="effect1_dropShadow_46:2960"/>
<feBlend mode="normal" in="SourceGraphic" in2="effect1_dropShadow_46:2960" result="shape"/>
</filter>
</defs>
</svg>
