<svg width="30" height="30" viewBox="0 0 30 30" fill="none" xmlns="http://www.w3.org/2000/svg">
<path d="M19.95 15.0009L29.2309 5.72004C30.2563 4.6946 30.2563 3.0321 29.2309 2.00826L27.9936 0.771004C26.9678 -0.254758 25.3053 -0.254758 24.2815 0.771004L15.0009 10.0516L5.72004 0.769081C4.6946 -0.25636 3.0321 -0.25636 2.00826 0.769081L0.769081 2.00634C-0.25636 3.0321 -0.25636 4.6946 0.769081 5.71844L10.0516 15.0009L0.771004 24.2815C-0.254758 25.3073 -0.254758 26.9698 0.771004 27.9936L2.00826 29.2309C3.03371 30.2563 4.6962 30.2563 5.72004 29.2309L15.0009 19.95L24.2815 29.2309C25.3073 30.2563 26.9698 30.2563 27.9936 29.2309L29.2309 27.9936C30.2563 26.9678 30.2563 25.3053 29.2309 24.2815L19.95 15.0009Z" fill="#AF8066"/>
</svg>
