<svg width="246" height="51" viewBox="0 0 246 51" fill="none" xmlns="http://www.w3.org/2000/svg">
<g filter="url(#filter0_d_46:2956)">
<rect x="6" width="240" height="45" rx="16" fill="#FFD3F3"/>
</g>
<path d="M15.644 24.583C15.644 23.249 15.9123 22.0837 16.449 21.087C17.001 20.0903 17.76 19.3237 18.726 18.787C19.7073 18.2503 20.8267 17.982 22.084 17.982C23.694 17.982 25.0357 18.4037 26.109 19.247C27.1977 20.0903 27.9107 21.2787 28.248 22.812H24.062C23.7093 21.8307 23.027 21.34 22.015 21.34C21.2943 21.34 20.7193 21.6237 20.29 22.191C19.8607 22.743 19.646 23.5403 19.646 24.583C19.646 25.6257 19.8607 26.4307 20.29 26.998C20.7193 27.55 21.2943 27.826 22.015 27.826C23.027 27.826 23.7093 27.3353 24.062 26.354H28.248C27.9107 27.8567 27.1977 29.0373 26.109 29.896C25.0203 30.7547 23.6787 31.184 22.084 31.184C20.8267 31.184 19.7073 30.9157 18.726 30.379C17.76 29.8423 17.001 29.0757 16.449 28.079C15.9123 27.0823 15.644 25.917 15.644 24.583ZM36.1938 31.184C34.9364 31.184 33.8018 30.9157 32.7898 30.379C31.7931 29.8423 31.0034 29.0757 30.4208 28.079C29.8534 27.0823 29.5698 25.917 29.5698 24.583C29.5698 23.2643 29.8611 22.1067 30.4438 21.11C31.0264 20.098 31.8238 19.3237 32.8358 18.787C33.8478 18.2503 34.9824 17.982 36.2398 17.982C37.4971 17.982 38.6318 18.2503 39.6438 18.787C40.6558 19.3237 41.4531 20.098 42.0358 21.11C42.6184 22.1067 42.9098 23.2643 42.9098 24.583C42.9098 25.9017 42.6108 27.067 42.0128 28.079C41.4301 29.0757 40.6251 29.8423 39.5978 30.379C38.5858 30.9157 37.4511 31.184 36.1938 31.184ZM36.1938 27.78C36.9451 27.78 37.5814 27.504 38.1028 26.952C38.6394 26.4 38.9078 25.6103 38.9078 24.583C38.9078 23.5557 38.6471 22.766 38.1258 22.214C37.6198 21.662 36.9911 21.386 36.2398 21.386C35.4731 21.386 34.8368 21.662 34.3308 22.214C33.8248 22.7507 33.5718 23.5403 33.5718 24.583C33.5718 25.6103 33.8171 26.4 34.3078 26.952C34.8138 27.504 35.4424 27.78 36.1938 27.78ZM52.8163 18.028C54.319 18.028 55.515 18.5187 56.4043 19.5C57.309 20.466 57.7613 21.8 57.7613 23.502V31H53.8513V24.031C53.8513 23.1723 53.629 22.5053 53.1843 22.03C52.7396 21.5547 52.1416 21.317 51.3903 21.317C50.639 21.317 50.041 21.5547 49.5963 22.03C49.1516 22.5053 48.9293 23.1723 48.9293 24.031V31H44.9963V18.166H48.9293V19.868C49.328 19.3007 49.8646 18.856 50.5393 18.534C51.214 18.1967 51.973 18.028 52.8163 18.028ZM67.6474 27.665V31H65.6464C64.2204 31 63.1087 30.655 62.3114 29.965C61.514 29.2597 61.1154 28.1173 61.1154 26.538V21.432H59.5514V18.166H61.1154V15.038H65.0484V18.166H67.6244V21.432H65.0484V26.584C65.0484 26.9673 65.1404 27.2433 65.3244 27.412C65.5084 27.5807 65.815 27.665 66.2444 27.665H67.6474ZM71.8161 16.832C71.1261 16.832 70.5588 16.6327 70.1141 16.234C69.6848 15.82 69.4701 15.314 69.4701 14.716C69.4701 14.1027 69.6848 13.5967 70.1141 13.198C70.5588 12.784 71.1261 12.577 71.8161 12.577C72.4908 12.577 73.0428 12.784 73.4721 13.198C73.9168 13.5967 74.1391 14.1027 74.1391 14.716C74.1391 15.314 73.9168 15.82 73.4721 16.234C73.0428 16.6327 72.4908 16.832 71.8161 16.832ZM73.7711 18.166V31H69.8381V18.166H73.7711ZM84.4413 18.028C85.944 18.028 87.14 18.5187 88.0293 19.5C88.934 20.466 89.3863 21.8 89.3863 23.502V31H85.4763V24.031C85.4763 23.1723 85.254 22.5053 84.8093 22.03C84.3646 21.5547 83.7666 21.317 83.0153 21.317C82.264 21.317 81.666 21.5547 81.2213 22.03C80.7766 22.5053 80.5543 23.1723 80.5543 24.031V31H76.6213V18.166H80.5543V19.868C80.953 19.3007 81.4896 18.856 82.1643 18.534C82.839 18.1967 83.598 18.028 84.4413 18.028ZM104.792 18.166V31H100.859V29.252C100.461 29.8193 99.9164 30.2793 99.2264 30.632C98.5517 30.9693 97.8004 31.138 96.9724 31.138C95.991 31.138 95.1247 30.9233 94.3734 30.494C93.622 30.0493 93.0394 29.413 92.6254 28.585C92.2114 27.757 92.0044 26.7833 92.0044 25.664V18.166H95.9144V25.135C95.9144 25.9937 96.1367 26.6607 96.5814 27.136C97.026 27.6113 97.624 27.849 98.3754 27.849C99.142 27.849 99.7477 27.6113 100.192 27.136C100.637 26.6607 100.859 25.9937 100.859 25.135V18.166H104.792ZM119.715 24.376C119.715 24.744 119.692 25.1273 119.646 25.526H110.745C110.807 26.3233 111.06 26.9367 111.504 27.366C111.964 27.78 112.524 27.987 113.183 27.987C114.165 27.987 114.847 27.573 115.23 26.745H119.416C119.202 27.5883 118.811 28.3473 118.243 29.022C117.691 29.6967 116.994 30.2257 116.15 30.609C115.307 30.9923 114.364 31.184 113.321 31.184C112.064 31.184 110.945 30.9157 109.963 30.379C108.982 29.8423 108.215 29.0757 107.663 28.079C107.111 27.0823 106.835 25.917 106.835 24.583C106.835 23.249 107.104 22.0837 107.64 21.087C108.192 20.0903 108.959 19.3237 109.94 18.787C110.922 18.2503 112.049 17.982 113.321 17.982C114.563 17.982 115.667 18.2427 116.633 18.764C117.599 19.2853 118.351 20.029 118.887 20.995C119.439 21.961 119.715 23.088 119.715 24.376ZM115.69 23.341C115.69 22.6663 115.46 22.1297 115 21.731C114.54 21.3323 113.965 21.133 113.275 21.133C112.616 21.133 112.056 21.3247 111.596 21.708C111.152 22.0913 110.876 22.6357 110.768 23.341H115.69ZM131.885 31.184C130.766 31.184 129.769 30.9923 128.895 30.609C128.021 30.2257 127.331 29.7043 126.825 29.045C126.319 28.3703 126.036 27.619 125.974 26.791H129.861C129.907 27.2357 130.114 27.596 130.482 27.872C130.85 28.148 131.303 28.286 131.839 28.286C132.33 28.286 132.706 28.194 132.966 28.01C133.242 27.8107 133.38 27.5577 133.38 27.251C133.38 26.883 133.189 26.6147 132.805 26.446C132.422 26.262 131.801 26.0627 130.942 25.848C130.022 25.6333 129.256 25.411 128.642 25.181C128.029 24.9357 127.5 24.56 127.055 24.054C126.611 23.5327 126.388 22.835 126.388 21.961C126.388 21.225 126.588 20.558 126.986 19.96C127.4 19.3467 127.998 18.8637 128.78 18.511C129.578 18.1583 130.521 17.982 131.609 17.982C133.219 17.982 134.484 18.3807 135.404 19.178C136.34 19.9753 136.876 21.0333 137.014 22.352H133.38C133.319 21.9073 133.12 21.5547 132.782 21.294C132.46 21.0333 132.031 20.903 131.494 20.903C131.034 20.903 130.682 20.995 130.436 21.179C130.191 21.3477 130.068 21.5853 130.068 21.892C130.068 22.26 130.26 22.536 130.643 22.72C131.042 22.904 131.655 23.088 132.483 23.272C133.434 23.5173 134.208 23.7627 134.806 24.008C135.404 24.238 135.926 24.6213 136.37 25.158C136.83 25.6793 137.068 26.3847 137.083 27.274C137.083 28.0253 136.869 28.7 136.439 29.298C136.025 29.8807 135.42 30.3407 134.622 30.678C133.84 31.0153 132.928 31.184 131.885 31.184ZM147.378 18.028C148.85 18.028 150.031 18.5187 150.92 19.5C151.81 20.466 152.254 21.8 152.254 23.502V31H148.344V24.031C148.344 23.1723 148.122 22.5053 147.677 22.03C147.233 21.5547 146.635 21.317 145.883 21.317C145.132 21.317 144.534 21.5547 144.089 22.03C143.645 22.5053 143.422 23.1723 143.422 24.031V31H139.489V13.98H143.422V19.891C143.821 19.3237 144.365 18.8713 145.055 18.534C145.745 18.1967 146.52 18.028 147.378 18.028ZM160.83 31.184C159.572 31.184 158.438 30.9157 157.426 30.379C156.429 29.8423 155.639 29.0757 155.057 28.079C154.489 27.0823 154.206 25.917 154.206 24.583C154.206 23.2643 154.497 22.1067 155.08 21.11C155.662 20.098 156.46 19.3237 157.472 18.787C158.484 18.2503 159.618 17.982 160.876 17.982C162.133 17.982 163.268 18.2503 164.28 18.787C165.292 19.3237 166.089 20.098 166.672 21.11C167.254 22.1067 167.546 23.2643 167.546 24.583C167.546 25.9017 167.247 27.067 166.649 28.079C166.066 29.0757 165.261 29.8423 164.234 30.379C163.222 30.9157 162.087 31.184 160.83 31.184ZM160.83 27.78C161.581 27.78 162.217 27.504 162.739 26.952C163.275 26.4 163.544 25.6103 163.544 24.583C163.544 23.5557 163.283 22.766 162.762 22.214C162.256 21.662 161.627 21.386 160.876 21.386C160.109 21.386 159.473 21.662 158.967 22.214C158.461 22.7507 158.208 23.5403 158.208 24.583C158.208 25.6103 158.453 26.4 158.944 26.952C159.45 27.504 160.078 27.78 160.83 27.78ZM173.565 19.983C173.948 19.385 174.477 18.902 175.152 18.534C175.827 18.166 176.616 17.982 177.521 17.982C178.579 17.982 179.537 18.2503 180.396 18.787C181.255 19.3237 181.929 20.0903 182.42 21.087C182.926 22.0837 183.179 23.2413 183.179 24.56C183.179 25.8787 182.926 27.044 182.42 28.056C181.929 29.0527 181.255 29.827 180.396 30.379C179.537 30.9157 178.579 31.184 177.521 31.184C176.632 31.184 175.842 31 175.152 30.632C174.477 30.264 173.948 29.7887 173.565 29.206V37.118H169.632V18.166H173.565V19.983ZM179.177 24.56C179.177 23.5787 178.901 22.812 178.349 22.26C177.812 21.6927 177.145 21.409 176.348 21.409C175.566 21.409 174.899 21.6927 174.347 22.26C173.81 22.8273 173.542 23.6017 173.542 24.583C173.542 25.5643 173.81 26.3387 174.347 26.906C174.899 27.4733 175.566 27.757 176.348 27.757C177.13 27.757 177.797 27.4733 178.349 26.906C178.901 26.3233 179.177 25.5413 179.177 24.56ZM189.175 19.983C189.559 19.385 190.088 18.902 190.762 18.534C191.437 18.166 192.227 17.982 193.131 17.982C194.189 17.982 195.148 18.2503 196.006 18.787C196.865 19.3237 197.54 20.0903 198.03 21.087C198.536 22.0837 198.789 23.2413 198.789 24.56C198.789 25.8787 198.536 27.044 198.03 28.056C197.54 29.0527 196.865 29.827 196.006 30.379C195.148 30.9157 194.189 31.184 193.131 31.184C192.242 31.184 191.452 31 190.762 30.632C190.088 30.264 189.559 29.7887 189.175 29.206V37.118H185.242V18.166H189.175V19.983ZM194.787 24.56C194.787 23.5787 194.511 22.812 193.959 22.26C193.423 21.6927 192.756 21.409 191.958 21.409C191.176 21.409 190.509 21.6927 189.957 22.26C189.421 22.8273 189.152 23.6017 189.152 24.583C189.152 25.5643 189.421 26.3387 189.957 26.906C190.509 27.4733 191.176 27.757 191.958 27.757C192.74 27.757 193.407 27.4733 193.959 26.906C194.511 26.3233 194.787 25.5413 194.787 24.56ZM202.831 16.832C202.141 16.832 201.573 16.6327 201.129 16.234C200.699 15.82 200.485 15.314 200.485 14.716C200.485 14.1027 200.699 13.5967 201.129 13.198C201.573 12.784 202.141 12.577 202.831 12.577C203.505 12.577 204.057 12.784 204.487 13.198C204.931 13.5967 205.154 14.1027 205.154 14.716C205.154 15.314 204.931 15.82 204.487 16.234C204.057 16.6327 203.505 16.832 202.831 16.832ZM204.786 18.166V31H200.853V18.166H204.786ZM215.456 18.028C216.959 18.028 218.155 18.5187 219.044 19.5C219.949 20.466 220.401 21.8 220.401 23.502V31H216.491V24.031C216.491 23.1723 216.269 22.5053 215.824 22.03C215.379 21.5547 214.781 21.317 214.03 21.317C213.279 21.317 212.681 21.5547 212.236 22.03C211.791 22.5053 211.569 23.1723 211.569 24.031V31H207.636V18.166H211.569V19.868C211.968 19.3007 212.504 18.856 213.179 18.534C213.854 18.1967 214.613 18.028 215.456 18.028ZM228.01 17.982C228.915 17.982 229.704 18.166 230.379 18.534C231.069 18.902 231.598 19.385 231.966 19.983V18.166H235.899V30.977C235.899 32.1577 235.661 33.2233 235.186 34.174C234.726 35.14 234.013 35.9067 233.047 36.474C232.096 37.0413 230.908 37.325 229.482 37.325C227.581 37.325 226.04 36.8727 224.859 35.968C223.678 35.0787 223.004 33.8673 222.835 32.334H226.722C226.845 32.8247 227.136 33.208 227.596 33.484C228.056 33.7753 228.623 33.921 229.298 33.921C230.111 33.921 230.755 33.6833 231.23 33.208C231.721 32.748 231.966 32.0043 231.966 30.977V29.16C231.583 29.758 231.054 30.2487 230.379 30.632C229.704 31 228.915 31.184 228.01 31.184C226.952 31.184 225.994 30.9157 225.135 30.379C224.276 29.827 223.594 29.0527 223.088 28.056C222.597 27.044 222.352 25.8787 222.352 24.56C222.352 23.2413 222.597 22.0837 223.088 21.087C223.594 20.0903 224.276 19.3237 225.135 18.787C225.994 18.2503 226.952 17.982 228.01 17.982ZM231.966 24.583C231.966 23.6017 231.69 22.8273 231.138 22.26C230.601 21.6927 229.942 21.409 229.16 21.409C228.378 21.409 227.711 21.6927 227.159 22.26C226.622 22.812 226.354 23.5787 226.354 24.56C226.354 25.5413 226.622 26.3233 227.159 26.906C227.711 27.4733 228.378 27.757 229.16 27.757C229.942 27.757 230.601 27.4733 231.138 26.906C231.69 26.3387 231.966 25.5643 231.966 24.583Z" fill="#AF8066"/>
<defs>
<filter id="filter0_d_46:2956" x="0" y="0" width="246" height="51" filterUnits="userSpaceOnUse" color-interpolation-filters="sRGB">
<feFlood flood-opacity="0" result="BackgroundImageFix"/>
<feColorMatrix in="SourceAlpha" type="matrix" values="0 0 0 0 0 0 0 0 0 0 0 0 0 0 0 0 0 0 127 0" result="hardAlpha"/>
<feOffset dx="-6" dy="6"/>
<feComposite in2="hardAlpha" operator="out"/>
<feColorMatrix type="matrix" values="0 0 0 0 0.979311 0 0 0 0 0.53046 0 0 0 0 0.853633 0 0 0 1 0"/>
<feBlend mode="normal" in2="BackgroundImageFix" result="effect1_dropShadow_46:2956"/>
<feBlend mode="normal" in="SourceGraphic" in2="effect1_dropShadow_46:2956" result="shape"/>
</filter>
</defs>
</svg>
