<svg width="131" height="41" viewBox="0 0 131 41" fill="none" xmlns="http://www.w3.org/2000/svg">
<rect width="131" height="41" rx="6" fill="#FFD3F3"/>
<rect x="50" y="5" width="31" height="31" rx="6" fill="white"/>
<path d="M8.47412 20.4224C8.47412 20.0769 8.61138 19.7455 8.8557 19.5012C9.10003 19.2569 9.4314 19.1196 9.77692 19.1196H21.0679C21.4134 19.1196 21.7448 19.2569 21.9891 19.5012C22.2334 19.7455 22.3707 20.0769 22.3707 20.4224C22.3707 20.7679 22.2334 21.0993 21.9891 21.3436C21.7448 21.588 21.4134 21.7252 21.0679 21.7252H9.77692C9.4314 21.7252 9.10003 21.588 8.8557 21.3436C8.61138 21.0993 8.47412 20.7679 8.47412 20.4224Z" fill="#FA87DA"/>
<path d="M116.481 13.0399C116.481 12.6943 116.343 12.363 116.099 12.1187C115.855 11.8743 115.523 11.7371 115.178 11.7371C114.832 11.7371 114.501 11.8743 114.257 12.1187C114.012 12.363 113.875 12.6943 113.875 13.0399V18.6853H108.23C107.884 18.6853 107.553 18.8226 107.308 19.0669C107.064 19.3112 106.927 19.6426 106.927 19.9881C106.927 20.3337 107.064 20.665 107.308 20.9094C107.553 21.1537 107.884 21.2909 108.23 21.2909H113.875V26.9364C113.875 27.2819 114.012 27.6133 114.257 27.8576C114.501 28.102 114.832 28.2392 115.178 28.2392C115.523 28.2392 115.855 28.102 116.099 27.8576C116.343 27.6133 116.481 27.2819 116.481 26.9364V21.2909H122.126C122.472 21.2909 122.803 21.1537 123.047 20.9094C123.292 20.665 123.429 20.3337 123.429 19.9881C123.429 19.6426 123.292 19.3112 123.047 19.0669C122.803 18.8226 122.472 18.6853 122.126 18.6853H116.481V13.0399Z" fill="#FA87DA"/>
<path d="M60.1723 19.882C60.1723 17.3593 60.583 15.394 61.4043 13.986C62.2256 12.5633 63.663 11.852 65.7163 11.852C67.755 11.852 69.185 12.5633 70.0063 13.986C70.8276 15.394 71.2383 17.3593 71.2383 19.882C71.2383 22.4487 70.8276 24.4433 70.0063 25.866C69.185 27.2887 67.755 28 65.7163 28C63.663 28 62.2256 27.2887 61.4043 25.866C60.583 24.4433 60.1723 22.4487 60.1723 19.882ZM69.2583 19.882C69.2583 18.606 69.1703 17.528 68.9943 16.648C68.833 15.7533 68.4883 15.0347 67.9603 14.492C67.447 13.9493 66.699 13.678 65.7163 13.678C64.719 13.678 63.9563 13.9493 63.4283 14.492C62.915 15.0347 62.5703 15.7533 62.3943 16.648C62.233 17.528 62.1523 18.606 62.1523 19.882C62.1523 21.202 62.233 22.3093 62.3943 23.204C62.5703 24.0987 62.915 24.8173 63.4283 25.36C63.9563 25.9027 64.719 26.174 65.7163 26.174C66.699 26.174 67.447 25.9027 67.9603 25.36C68.4883 24.8173 68.833 24.0987 68.9943 23.204C69.1703 22.3093 69.2583 21.202 69.2583 19.882Z" fill="black"/>
</svg>
