<svg width="241" height="170" viewBox="0 0 241 170" fill="none" xmlns="http://www.w3.org/2000/svg">
<g clip-path="url(#clip0)">
<path d="M236.688 75.9675L240.397 94.9388C244.834 117.811 224.213 138.626 197.052 138.626H160.61C134.179 138.626 113.729 118.84 117.008 96.4607L119.431 79.9333L236.688 75.9675Z" fill="#AF8066"/>
<path d="M233.88 82.8058C230.334 86.7062 225.281 88.8929 220.011 88.8079C218.147 88.8057 216.294 88.5461 214.502 88.0362C214.278 87.9762 214.047 87.9473 213.816 87.9505C212.639 87.8667 211.615 88.747 211.522 89.9225V100.041C211.314 102.589 209.099 104.498 206.548 104.328C205.269 104.343 204.028 103.894 203.054 103.063C202.147 102.319 201.614 101.213 201.597 100.041V95.7533C201.4 93.2086 199.191 91.2965 196.645 91.466C195.364 91.4429 194.12 91.8934 193.15 92.7307C192.243 93.4745 191.71 94.5804 191.693 95.7533V106.472C191.382 110.312 188.032 113.183 184.19 112.903C182.257 112.923 180.38 112.255 178.895 111.016C177.526 109.9 176.719 108.237 176.687 106.472V101.756C176.687 94.5745 168.477 89.5153 160.545 91.7878H160.524C156.592 92.9298 152.356 92.2788 148.948 90.0085L146.891 88.6365C143.483 86.3665 139.247 85.7152 135.315 86.8572H135.293C130.289 88.3553 124.87 86.8461 121.36 82.9772L121.188 82.7628C119.24 80.4932 118.301 77.5272 118.588 74.5498C118.875 71.5724 120.364 68.8408 122.71 66.9855L124.146 65.7422L127.126 64.0917C127.126 64.0917 230.45 65.978 230.686 65.5921L230.922 65.7422H231.329L232.572 66.8141C234.94 68.7133 236.422 71.5032 236.669 74.5285C236.917 77.5535 235.908 80.5472 233.88 82.8058Z" fill="#FFD3F3"/>
<path d="M232.208 60.4902C232.202 62.3017 231.673 64.073 230.686 65.5921C230.448 65.9821 230.183 66.3546 229.893 66.7067L229.764 66.8354C225.66 71.4306 219.308 73.307 213.365 71.68L206.999 70.0295C201.625 68.6378 195.956 68.8915 190.728 70.7582L178.51 75.1528C172.306 77.3522 165.525 77.2837 159.367 74.96L151.2 71.8303C148.063 70.6399 144.736 70.0299 141.382 70.0297H137.416C135.048 70.0455 132.734 69.3265 130.792 67.9719L127.126 64.0917C124.854 60.5093 124.779 55.9562 126.933 52.3015C128.452 49.8622 131.002 48.2512 133.857 47.9285L144.254 46.4494H210.3L216.667 47.4783C221.053 48.1534 225.169 50.0222 228.564 52.8804C230.835 54.76 232.168 57.5421 232.208 60.4902Z" fill="#FA87DA"/>
<path d="M205.905 55.4528L201.575 57.2107C196.285 59.36 190.441 59.7362 184.919 58.2825L183.333 57.8753C178.576 56.6373 173.569 56.7337 168.863 58.1541C163.82 59.6975 158.43 59.6975 153.386 58.1541L149.12 56.8464C146.829 56.3382 144.986 54.641 144.29 52.3996C143.595 50.158 144.154 47.7156 145.755 45.9997L148.52 42.9557L151.178 40.0189L151.457 39.8902L151.843 39.7187C151.607 39.1325 151.484 38.5072 151.478 37.8751C151.478 31.9587 162.604 27.1569 176.345 27.1569C190.064 27.1569 202.411 36.3103 208.156 44.3705C208.695 45.1184 209.134 45.9324 209.464 46.7928C210.248 48.4006 210.307 50.2668 209.627 51.921C208.947 53.5752 207.593 54.8603 205.905 55.4528Z" fill="#FFD3F3"/>
<path d="M190.921 42.1622C190.921 46.964 185.069 50.7367 177.588 50.7367H176.344C163.718 50.7367 152.957 47.6497 148.52 42.9553L151.178 40.0184L151.457 39.8897C154.372 43.2552 163.804 46.4492 176.344 46.4492H177.588C182.754 46.4492 186.634 44.177 186.634 42.1619C186.634 40.1469 182.754 37.8746 177.588 37.8746C174.96 37.796 172.366 38.489 170.128 39.8683C169.156 40.5509 167.815 40.3212 167.127 39.3538C166.799 38.8907 166.669 38.3161 166.765 37.7571C166.862 37.1981 167.177 36.7003 167.641 36.3742C170.599 34.4628 174.067 33.4912 177.588 33.5874C185.069 33.5874 190.921 37.3603 190.921 42.1622Z" fill="white"/>
</g>
<g clip-path="url(#clip1)">
<path d="M131.568 49.999L144.265 64.5743C159.544 82.1639 152.093 110.501 128.571 124.081L97.0117 142.302C74.1216 155.518 46.5181 148.608 38.1686 127.587L32.0026 112.062L131.568 49.999Z" fill="#AF8066"/>
<path d="M132.555 57.3253C131.434 62.4762 128.152 66.8962 123.545 69.4579C121.93 70.3877 120.195 71.0898 118.388 71.5442C118.164 71.6041 117.95 71.6944 117.751 71.813C116.69 72.3286 116.244 73.6029 116.75 74.6678L121.809 83.4302C122.904 85.7406 121.94 88.5018 119.646 89.6297C118.546 90.2827 117.246 90.5143 115.988 90.2815C114.83 90.091 113.815 89.3999 113.214 88.3928L111.07 84.6799C109.628 82.5745 106.759 82.0229 104.638 83.443C103.518 84.0633 102.665 85.0755 102.244 86.2853C101.831 87.3829 101.922 88.6073 102.493 89.6318L107.852 98.9141C109.504 102.395 108.038 106.556 104.57 108.235C102.907 109.22 100.947 109.579 99.0417 109.249C97.2983 108.966 95.7676 107.93 94.8574 106.417L92.4994 102.333C88.9088 96.1138 79.2689 95.8375 73.5362 101.771L73.5177 101.782C70.6834 104.737 66.6895 106.291 62.6032 106.029L60.1351 105.87C56.049 105.608 52.055 107.161 49.2206 110.117L49.2021 110.127C45.6175 113.927 40.1691 115.33 35.1952 113.734L34.9395 113.634C32.1173 112.643 29.8213 110.543 28.5812 107.821C27.341 105.099 27.2646 101.989 28.3689 99.2095L28.9909 97.4146L30.7461 94.4954C30.7461 94.4954 121.17 44.467 121.182 44.015L121.461 44.027L121.814 43.8234L123.426 44.13C126.426 44.591 129.105 46.2662 130.832 48.7625C132.559 51.2583 133.182 54.3553 132.555 57.3253Z" fill="#FFD3F3"/>
<path d="M119.949 38.8353C120.849 40.4075 121.277 42.2056 121.182 44.0148C121.171 44.4714 121.128 44.9265 121.052 45.3767L121.005 45.5525C119.748 51.5843 115.186 56.3851 109.226 57.9475L102.887 59.7014C97.537 61.1831 92.755 64.237 89.1607 68.4676L80.7763 78.3828C76.5038 83.3891 70.5963 86.7208 64.1018 87.7872L55.4639 89.1605C52.1524 89.6978 48.9663 90.8329 46.0611 92.51L42.6264 94.493C40.5839 95.6905 38.2202 96.2249 35.8611 96.0228L30.7463 94.4953C26.9873 92.529 24.6462 88.6232 24.6842 84.3811C24.7794 81.5096 26.1829 78.839 28.4941 77.1321L36.7584 70.6527L93.9558 37.6298L99.9839 35.3375C104.12 33.729 108.619 33.2895 112.988 34.0672C115.895 34.5592 118.44 36.3026 119.949 38.8353Z" fill="#FA87DA"/>
<path d="M94.6516 47.6242L91.7805 51.3117C88.2739 55.8181 83.4007 59.066 77.8918 60.568L76.3145 61.0085C71.5757 62.3149 67.2881 64.9017 63.9229 68.4847C60.3266 72.3432 55.6588 75.0382 50.5193 76.2232L46.1711 77.2237C43.9326 77.9292 41.4878 77.381 39.7648 75.7877C38.0417 74.1941 37.3044 71.7995 37.8332 69.5129L38.7061 65.4941L39.5396 61.6216L39.7167 61.3708L39.9652 61.0294C39.4679 60.6396 39.0482 60.1599 38.7277 59.615C35.7695 54.4912 43.0035 44.77 54.9034 37.8995C66.7849 31.0398 82.0546 32.7933 91.06 36.9012C91.9002 37.2797 92.6878 37.7649 93.4036 38.3451C94.8861 39.3457 95.8708 40.9321 96.109 42.7046C96.3473 44.4772 95.817 46.2672 94.6516 47.6242Z" fill="#FFD3F3"/>
<path d="M75.0297 43.6063C77.4306 47.7648 74.2489 53.9581 67.7697 57.6988L66.6929 58.3205C55.7585 64.6335 44.8955 67.3408 38.7054 65.4939L39.539 61.6215L39.716 61.3706C43.9237 62.8274 53.689 60.8775 64.5492 54.6074L65.6259 53.9858C70.0999 51.4027 72.324 47.4949 71.3165 45.7498C70.3089 44.0047 65.8126 43.977 61.3387 46.56C59.0234 47.8058 57.1239 49.7028 55.875 52.0165C55.3747 53.0936 54.099 53.5649 53.0186 53.0715C52.5032 52.8344 52.1032 52.4019 51.9074 51.8694C51.7116 51.337 51.7354 50.7484 51.9745 50.2338C53.5807 47.0994 56.0978 44.5243 59.195 42.8471C65.6742 39.1064 72.6288 39.4478 75.0297 43.6063Z" fill="white"/>
</g>
<defs>
<clipPath id="clip0">
<rect width="124.338" height="124.338" fill="white" transform="translate(116.662 20.7229)"/>
</clipPath>
<clipPath id="clip1">
<rect width="124.338" height="124.338" fill="white" transform="translate(0 62.1688) rotate(-30)"/>
</clipPath>
</defs>
</svg>
