<svg width="1152" height="700" viewBox="0 0 1152 700" fill="none" xmlns="http://www.w3.org/2000/svg">
<g clip-path="url(#clip0)">
<rect width="1152" height="700" fill="white"/>
<path fill-rule="evenodd" clip-rule="evenodd" d="M477.542 379.639L703.742 35.5295L-31.5009 -80L-355.486 394.006L89.4927 969.964L468.986 392.655V391.002C468.986 388.626 468.348 386.8 467.072 385.524C465.84 384.204 464.124 383.544 461.924 383.544C459.724 383.544 457.986 384.204 456.71 385.524C455.478 386.8 454.862 388.626 454.862 391.002V411H443.576V374.172H454.862V378.792C456.006 377.252 457.502 376.042 459.35 375.162C461.198 374.238 463.288 373.776 465.62 373.776C468.392 373.776 470.856 374.37 473.012 375.558C474.866 376.559 476.376 377.919 477.542 379.639ZM245.769 411L257.847 364.668H245.703L238.971 398.394L231.051 364.668H218.643L210.393 398.394L203.727 364.668H191.649L203.397 411H217.059L224.715 380.508L232.107 411H245.769ZM305.615 395.292C305.747 394.148 305.813 393.048 305.813 391.992C305.813 388.296 305.021 385.062 303.437 382.29C301.897 379.518 299.741 377.384 296.969 375.888C294.197 374.392 291.029 373.644 287.465 373.644C283.813 373.644 280.579 374.414 277.763 375.954C274.947 377.494 272.747 379.694 271.163 382.554C269.623 385.414 268.853 388.758 268.853 392.586C268.853 396.414 269.645 399.758 271.229 402.618C272.813 405.478 275.013 407.678 277.829 409.218C280.645 410.758 283.857 411.528 287.465 411.528C290.457 411.528 293.163 410.978 295.583 409.878C298.003 408.778 300.005 407.26 301.589 405.324C303.217 403.388 304.339 401.21 304.955 398.79H292.943C291.843 401.166 289.885 402.354 287.069 402.354C285.177 402.354 283.571 401.76 282.251 400.572C280.975 399.34 280.249 397.58 280.073 395.292H305.615ZM292.283 384.402C293.603 385.546 294.263 387.086 294.263 389.022H280.139C280.447 386.998 281.239 385.436 282.515 384.336C283.835 383.236 285.441 382.686 287.333 382.686C289.313 382.686 290.963 383.258 292.283 384.402ZM330.643 411V362.16H319.357V411H330.643ZM346.478 382.554C344.938 385.414 344.168 388.758 344.168 392.586C344.168 396.414 344.938 399.758 346.478 402.618C348.062 405.478 350.24 407.678 353.012 409.218C355.828 410.758 359.04 411.528 362.648 411.528C367.224 411.528 371.074 410.296 374.198 407.832C377.322 405.368 379.368 401.98 380.336 397.668H368.324C367.312 400.484 365.354 401.892 362.45 401.892C360.382 401.892 358.732 401.1 357.5 399.516C356.268 397.888 355.652 395.578 355.652 392.586C355.652 389.594 356.268 387.306 357.5 385.722C358.732 384.094 360.382 383.28 362.45 383.28C365.354 383.28 367.312 384.688 368.324 387.504H380.336C379.368 383.104 377.322 379.694 374.198 377.274C371.118 374.854 367.268 373.644 362.648 373.644C359.04 373.644 355.828 374.414 353.012 375.954C350.24 377.494 348.062 379.694 346.478 382.554ZM400.959 409.218C403.863 410.758 407.119 411.528 410.727 411.528C414.335 411.528 417.591 410.758 420.495 409.218C423.443 407.678 425.753 405.478 427.425 402.618C429.141 399.714 429.999 396.37 429.999 392.586C429.999 388.802 429.163 385.48 427.491 382.62C425.819 379.716 423.531 377.494 420.627 375.954C417.723 374.414 414.467 373.644 410.859 373.644C407.251 373.644 403.995 374.414 401.091 375.954C398.187 377.494 395.899 379.716 394.227 382.62C392.555 385.48 391.719 388.802 391.719 392.586C391.719 396.414 392.533 399.758 394.161 402.618C395.833 405.478 398.099 407.678 400.959 409.218ZM416.205 399.384C414.709 400.968 412.883 401.76 410.727 401.76C408.571 401.76 406.767 400.968 405.315 399.384C403.907 397.8 403.203 395.534 403.203 392.586C403.203 389.594 403.929 387.328 405.381 385.788C406.833 384.204 408.659 383.412 410.859 383.412C413.015 383.412 414.819 384.204 416.271 385.788C417.767 387.372 418.515 389.638 418.515 392.586C418.515 395.534 417.745 397.8 416.205 399.384Z" fill="#FA87DA"/>
</g>
<defs>
<clipPath id="clip0">
<rect width="1152" height="700" fill="white"/>
</clipPath>
</defs>
</svg>
