<svg width="117" height="49" viewBox="0 0 117 49" fill="none" xmlns="http://www.w3.org/2000/svg">
<path fill-rule="evenodd" clip-rule="evenodd" d="M0.501941 29.0054L8.83801 16.3241C9.13856 16.7405 9.41787 17.1792 9.67594 17.64C10.9519 15.616 12.6899 13.966 14.8899 12.69C17.0899 11.414 19.4879 10.776 22.0839 10.776C26.6599 10.776 30.2899 12.162 32.9739 14.934C35.7019 17.706 37.0659 21.556 37.0659 26.484V48H25.8459V28.002C25.8459 25.626 25.2079 23.8 23.9319 22.524C22.6999 21.204 20.9839 20.544 18.7839 20.544C16.5839 20.544 14.8459 21.204 13.5699 22.524C12.3379 23.8 11.7219 25.626 11.7219 28.002V48H0.501941V29.0054ZM87.0671 32.292C87.1991 31.148 87.2651 30.048 87.2651 28.992C87.2651 25.296 86.4731 22.062 84.8891 19.29C83.3491 16.518 81.1931 14.384 78.4211 12.888C75.6491 11.392 72.4811 10.644 68.9171 10.644C65.2651 10.644 62.0311 11.414 59.2151 12.954C56.3991 14.494 54.1991 16.694 52.6151 19.554C51.0751 22.414 50.3051 25.758 50.3051 29.586C50.3051 33.414 51.0971 36.758 52.6811 39.618C54.2651 42.478 56.4651 44.678 59.2811 46.218C62.0971 47.758 65.3091 48.528 68.9171 48.528C71.9091 48.528 74.6151 47.978 77.0351 46.878C79.4551 45.778 81.4571 44.26 83.0411 42.324C84.6691 40.388 85.7911 38.21 86.4071 35.79H74.3951C73.2951 38.166 71.3371 39.354 68.5211 39.354C66.6291 39.354 65.0231 38.76 63.7031 37.572C62.4271 36.34 61.7011 34.58 61.5251 32.292H87.0671ZM73.7351 21.402C75.0551 22.546 75.7151 24.086 75.7151 26.022H61.5911C61.8991 23.998 62.6911 22.436 63.9671 21.336C65.2871 20.236 66.8931 19.686 68.7851 19.686C70.7651 19.686 72.4151 20.258 73.7351 21.402ZM114.339 31.632L115.659 0.0179962H103.449L104.769 31.632H114.339ZM104.835 46.812C106.111 47.956 107.739 48.528 109.719 48.528C111.655 48.528 113.239 47.956 114.471 46.812C115.747 45.624 116.385 44.172 116.385 42.456C116.385 40.696 115.747 39.222 114.471 38.034C113.239 36.846 111.655 36.252 109.719 36.252C107.739 36.252 106.111 36.846 104.835 38.034C103.603 39.222 102.987 40.696 102.987 42.456C102.987 44.172 103.603 45.624 104.835 46.812Z" fill="#AF8066"/>
</svg>
