<svg width="25" height="25" viewBox="0 0 25 25" fill="none" xmlns="http://www.w3.org/2000/svg">
<g clip-path="url(#clip0)">
<path d="M21.3394 3.6609C16.4578 -1.22019 8.54294 -1.22073 3.66077 3.6609C-1.22085 8.54252 -1.22031 16.4574 3.66077 21.3395C8.5424 26.2201 16.4572 26.2206 21.3394 21.3395C26.2205 16.4574 26.22 8.54307 21.3394 3.6609ZM14.13 17.9351C14.13 18.8357 13.4001 19.5656 12.4995 19.5656C11.599 19.5656 10.8691 18.8357 10.8691 17.9351V11.4132C10.8691 10.5127 11.599 9.78277 12.4995 9.78277C13.4001 9.78277 14.13 10.5127 14.13 11.4132V17.9351ZM12.4707 8.62622C11.5316 8.62622 10.9055 7.96099 10.9251 7.13978C10.9055 6.27889 11.5316 5.63376 12.4898 5.63376C13.4485 5.63376 14.055 6.27943 14.0751 7.13978C14.0746 7.96099 13.449 8.62622 12.4707 8.62622Z" fill="#FA87DA"/>
</g>
<defs>
<clipPath id="clip0">
<rect width="25" height="25" fill="white"/>
</clipPath>
</defs>
</svg>
