<svg width="53" height="54" viewBox="0 0 53 54" fill="none" xmlns="http://www.w3.org/2000/svg">
<path fill-rule="evenodd" clip-rule="evenodd" d="M16.4854 2.3985C19.0757 2.277 19.9017 2.25 26.5002 2.25C33.0987 2.25 33.9246 2.27925 36.5127 2.3985C39.1009 2.51775 40.8676 2.9385 42.4134 3.54825C44.0321 4.1715 45.5007 5.14575 46.7152 6.40575C47.9519 7.641 48.9059 9.135 49.5154 10.7865C50.1161 12.3615 50.5268 14.1615 50.6461 16.794C50.7653 19.4377 50.7918 20.2792 50.7918 27C50.7918 33.723 50.7631 34.5645 50.6461 37.2038C50.529 39.8363 50.1161 41.6362 49.5154 43.2113C48.9059 44.863 47.9503 46.3594 46.7152 47.5965C45.5007 48.8565 44.0321 49.8285 42.4134 50.4495C40.8676 51.0615 39.1009 51.48 36.5172 51.6015C33.9246 51.723 33.0987 51.75 26.5002 51.75C19.9017 51.75 19.0757 51.7207 16.4854 51.6015C13.9016 51.4823 12.135 51.0615 10.5891 50.4495C8.96803 49.8284 7.49927 48.8548 6.28508 47.5965C5.04925 46.3605 4.0929 44.8647 3.4827 43.2135C2.88425 41.6385 2.4735 39.8385 2.35425 37.206C2.235 34.5622 2.2085 33.7208 2.2085 27C2.2085 20.277 2.2372 19.4355 2.35425 16.7985C2.47129 14.1615 2.88425 12.3615 3.4827 10.7865C4.0938 9.13518 5.05088 7.63945 6.28729 6.4035C7.49975 5.14463 8.96704 4.17025 10.5869 3.54825C12.1327 2.9385 13.8994 2.52 16.4832 2.3985H16.4854ZM36.3162 6.8535C33.7545 6.73425 32.986 6.7095 26.5002 6.7095C20.0143 6.7095 19.2458 6.73425 16.6841 6.8535C14.3146 6.96375 13.0293 7.3665 12.1725 7.70625C11.0396 8.15625 10.2292 8.6895 9.37895 9.55575C8.57301 10.3546 7.95277 11.3271 7.5637 12.402C7.23025 13.275 6.83495 14.5845 6.72675 16.9987C6.6097 19.6087 6.58541 20.3918 6.58541 27C6.58541 33.6082 6.6097 34.3913 6.72675 37.0013C6.83495 39.4155 7.23025 40.725 7.5637 41.598C7.95237 42.6713 8.57291 43.6455 9.37895 44.4443C10.1629 45.2655 11.1191 45.8978 12.1725 46.2938C13.0293 46.6335 14.3146 47.0363 16.6841 47.1465C19.2458 47.2658 20.0121 47.2905 26.5002 47.2905C32.9882 47.2905 33.7545 47.2658 36.3162 47.1465C38.6857 47.0363 39.971 46.6335 40.8278 46.2938C41.9607 45.8438 42.7712 45.3105 43.6214 44.4443C44.4274 43.6455 45.048 42.6713 45.4366 41.598C45.7701 40.725 46.1654 39.4155 46.2736 37.0013C46.3906 34.3913 46.4149 33.6082 46.4149 27C46.4149 20.3918 46.3906 19.6087 46.2736 16.9987C46.1654 14.5845 45.7701 13.275 45.4366 12.402C44.995 11.2478 44.4716 10.422 43.6214 9.55575C42.8372 8.73466 41.8828 8.10272 40.8278 7.70625C39.971 7.3665 38.6857 6.96375 36.3162 6.8535ZM23.3975 34.6297C25.1302 35.3647 27.0597 35.4639 28.8563 34.9104C30.6529 34.3569 32.2052 33.1851 33.248 31.595C34.2908 30.005 34.7594 28.0955 34.5739 26.1925C34.3884 24.2895 33.5602 22.5112 32.2308 21.1612C31.3833 20.2983 30.3586 19.6376 29.2304 19.2266C28.1022 18.8156 26.8986 18.6646 25.7063 18.7844C24.5139 18.9042 23.3625 19.2919 22.3348 19.9195C21.3072 20.5472 20.4289 21.3992 19.7632 22.4142C19.0975 23.4292 18.661 24.5819 18.4851 25.7894C18.3091 26.9969 18.3981 28.2292 18.7457 29.3974C19.0933 30.5657 19.6907 31.6409 20.4951 32.5456C21.2994 33.4504 22.2907 34.1622 23.3975 34.6297ZM17.6712 18.0045C18.8307 16.8232 20.2071 15.8861 21.722 15.2468C23.2369 14.6075 24.8605 14.2784 26.5002 14.2784C28.1398 14.2784 29.7635 14.6075 31.2783 15.2468C32.7932 15.8861 34.1696 16.8232 35.3291 18.0045C36.4885 19.1858 37.4082 20.5882 38.0357 22.1317C38.6632 23.6751 38.9861 25.3294 38.9861 27C38.9861 28.6706 38.6632 30.3249 38.0357 31.8683C37.4082 33.4118 36.4885 34.8142 35.3291 35.9955C32.9875 38.3813 29.8116 39.7216 26.5002 39.7216C23.1887 39.7216 20.0128 38.3813 17.6712 35.9955C15.3297 33.6097 14.0142 30.374 14.0142 27C14.0142 23.626 15.3297 20.3903 17.6712 18.0045ZM41.7553 16.173C42.0426 15.8969 42.2727 15.5648 42.4317 15.1964C42.5908 14.8281 42.6758 14.431 42.6815 14.0286C42.6873 13.6262 42.6138 13.2267 42.4653 12.8538C42.3168 12.4809 42.0964 12.1421 41.8171 11.8576C41.5378 11.573 41.2053 11.3485 40.8393 11.1972C40.4733 11.0459 40.0812 10.9709 39.6863 10.9768C39.2913 10.9827 38.9016 11.0692 38.5401 11.2313C38.1785 11.3934 37.8526 11.6278 37.5816 11.9205C37.0545 12.4898 36.7659 13.246 36.7771 14.0286C36.7883 14.8112 37.0984 15.5585 37.6415 16.1119C38.1847 16.6653 38.9182 16.9813 39.6863 16.9927C40.4543 17.0041 41.1966 16.7101 41.7553 16.173Z" fill="white"/>
</svg>
