<svg width="70" height="50" viewBox="0 0 70 50" fill="none" xmlns="http://www.w3.org/2000/svg">
<g clip-path="url(#clip0)">
<path d="M68.7477 22.0652L69.8249 27.5756C71.1138 34.2191 65.124 40.2649 57.2352 40.2649H46.6503C38.9732 40.2649 33.0333 34.5179 33.9859 28.0176L34.6895 23.2171L68.7477 22.0652Z" fill="#AF8066"/>
<path d="M67.932 24.0515C66.902 25.1844 65.4345 25.8195 63.9036 25.7948C63.3624 25.7942 62.8239 25.7188 62.3034 25.5707C62.2385 25.5533 62.1714 25.5449 62.1042 25.5458C61.7625 25.5215 61.4651 25.7771 61.4379 26.1186V29.0574C61.3777 29.7975 60.7343 30.3522 59.9934 30.3027C59.6217 30.3071 59.2612 30.1766 58.9785 29.9354C58.715 29.7193 58.5601 29.3981 58.5551 29.0574V27.8122C58.4979 27.073 57.8564 26.5177 57.1168 26.5669C56.7448 26.5602 56.3834 26.691 56.1019 26.9342C55.8384 27.1503 55.6835 27.4715 55.6784 27.8122V30.9254C55.5882 32.0408 54.6153 32.8747 53.4992 32.7933C52.9377 32.7993 52.3925 32.6051 51.9613 32.2454C51.5638 31.9211 51.3292 31.4383 51.32 30.9254V29.5556C51.32 27.4698 48.9353 26.0003 46.6315 26.6604H46.6253C45.4832 26.9921 44.2529 26.803 43.2631 26.1436L42.6654 25.745C41.6756 25.0857 40.4453 24.8965 39.3031 25.2283H39.2969C37.8434 25.6634 36.2692 25.225 35.2498 24.1013L35.2 24.039C34.634 23.3798 34.3614 22.5183 34.4447 21.6535C34.5281 20.7887 34.9605 19.9953 35.642 19.4564L36.0592 19.0953L36.9246 18.6158C36.9246 18.6158 66.9357 19.1637 67.0042 19.0517L67.0727 19.0953H67.191L67.5521 19.4066C68.2398 19.9582 68.6702 20.7686 68.7421 21.6473C68.814 22.5259 68.521 23.3955 67.932 24.0515Z" fill="#FFD3F3"/>
<path d="M67.4464 17.5697C67.4445 18.0959 67.291 18.6104 67.0043 19.0516C66.9352 19.1649 66.8583 19.2731 66.7739 19.3754L66.7365 19.4128C65.5443 20.7475 63.6995 21.2925 61.9734 20.8199L60.1241 20.3405C58.5632 19.9363 56.9169 20.01 55.3983 20.5522L51.8493 21.8286C50.0476 22.4674 48.0777 22.4475 46.2892 21.7726L43.917 20.8636C43.006 20.5178 42.0397 20.3406 41.0653 20.3406H39.9134C39.2257 20.3451 38.5535 20.1363 37.9894 19.7429L36.9247 18.6158C36.2647 17.5753 36.243 16.2528 36.8687 15.1913C37.3096 14.4828 38.0505 14.0149 38.8798 13.9211L41.8996 13.4915H61.083L62.9323 13.7904C64.2063 13.9864 65.4018 14.5293 66.3879 15.3594C67.0477 15.9054 67.4346 16.7135 67.4464 17.5697Z" fill="#FA87DA"/>
<path d="M59.8066 16.1066L58.5488 16.6172C57.0123 17.2415 55.3148 17.3507 53.711 16.9285L53.2502 16.8102C51.8685 16.4507 50.4143 16.4787 49.0475 16.8912C47.5825 17.3395 46.0169 17.3395 44.552 16.8912L43.313 16.5114C42.6474 16.3638 42.1121 15.8708 41.9101 15.2198C41.7081 14.5687 41.8704 13.8593 42.3355 13.3609L43.1387 12.4768L43.9107 11.6237L43.9917 11.5864L44.1038 11.5366C44.0353 11.3663 43.9994 11.1847 43.9979 11.0011C43.9979 9.2826 47.2294 7.88788 51.2205 7.88788C55.2054 7.88788 58.7917 10.5466 60.4604 12.8877C60.6168 13.1049 60.7445 13.3414 60.8402 13.5913C61.0679 14.0583 61.0851 14.6003 60.8876 15.0808C60.6901 15.5612 60.2968 15.9345 59.8066 16.1066Z" fill="#FFD3F3"/>
<path d="M55.4543 12.2463C55.4543 13.641 53.7546 14.7368 51.5815 14.7368H51.2204C47.5531 14.7368 44.4274 13.8402 43.1385 12.4766L43.9106 11.6236L43.9916 11.5862C44.8384 12.5637 47.578 13.4915 51.2204 13.4915H51.5815C53.082 13.4915 54.209 12.8315 54.209 12.2462C54.209 11.6609 53.082 11.0009 51.5815 11.0009C50.8182 10.9781 50.0649 11.1794 49.4147 11.58C49.1325 11.7783 48.7431 11.7116 48.543 11.4306C48.4478 11.296 48.41 11.1292 48.4381 10.9668C48.4661 10.8044 48.5576 10.6598 48.6925 10.5651C49.5517 10.0099 50.5588 9.72774 51.5815 9.75567C53.7546 9.75567 55.4543 10.8515 55.4543 12.2463Z" fill="white"/>
</g>
<g clip-path="url(#clip1)">
<path d="M38.2148 14.5225L41.9028 18.756C46.3407 23.865 44.1764 32.0957 37.3444 36.0402L28.1777 41.3326C21.5291 45.1711 13.5115 43.1641 11.0863 37.0583L9.29537 32.5492L38.2148 14.5225Z" fill="#AF8066"/>
<path d="M38.5014 16.6505C38.1759 18.1466 37.2226 19.4304 35.8844 20.1745C35.4154 20.4445 34.9114 20.6485 34.3865 20.7805C34.3216 20.7978 34.2593 20.8241 34.2015 20.8585C33.8935 21.0083 33.7637 21.3784 33.9109 21.6877L35.3803 24.2328C35.6982 24.9039 35.4184 25.7059 34.752 26.0335C34.4324 26.2232 34.0549 26.2904 33.6894 26.2228C33.3532 26.1675 33.0584 25.9668 32.8837 25.6742L32.2611 24.5958C31.8421 23.9843 31.0088 23.824 30.3929 24.2365C30.0674 24.4167 29.8198 24.7107 29.6976 25.0621C29.5775 25.3809 29.6039 25.7365 29.7699 26.0341L31.3265 28.7302C31.8061 29.7413 31.3804 30.9499 30.3731 31.4375C29.8899 31.7235 29.3206 31.8279 28.7673 31.732C28.2609 31.6499 27.8163 31.349 27.552 30.9095L26.8671 29.7232C25.8242 27.9168 23.0242 27.8366 21.3591 29.5601L21.3537 29.5632C20.5305 30.4215 19.3704 30.8729 18.1835 30.7967L17.4667 30.7505C16.2798 30.6744 15.1197 31.1257 14.2965 31.984L14.2911 31.9871C13.2499 33.0907 11.6674 33.4982 10.2227 33.0347L10.1484 33.0057C9.32871 32.7178 8.66181 32.108 8.30161 31.3174C7.94141 30.5268 7.9192 29.6234 8.23995 28.816L8.42063 28.2947L8.93042 27.4468C8.93042 27.4468 35.1948 12.9157 35.1981 12.7844L35.2792 12.7879L35.3816 12.7288L35.85 12.8178C36.7214 12.9517 37.4993 13.4383 38.0009 14.1633C38.5025 14.8883 38.6835 15.7878 38.5014 16.6505Z" fill="#FFD3F3"/>
<path d="M34.84 11.28C35.1014 11.7366 35.2257 12.2589 35.1981 12.7844C35.1949 12.917 35.1824 13.0492 35.1604 13.1799L35.1468 13.231C34.7816 14.983 33.4564 16.3774 31.7253 16.8312L29.8841 17.3406C28.3302 17.771 26.9413 18.658 25.8973 19.8868L23.462 22.7668C22.221 24.2209 20.5051 25.1886 18.6188 25.4983L16.1098 25.8972C15.148 26.0533 14.2226 26.383 13.3787 26.8701L12.3811 27.4461C11.7878 27.7939 11.1013 27.9491 10.4161 27.8904L8.93044 27.4468C7.83863 26.8756 7.15863 25.7412 7.16968 24.509C7.19732 23.675 7.60498 22.8993 8.27627 22.4035L10.6767 20.5215L27.2901 10.9298L29.041 10.264C30.2424 9.79678 31.5491 9.66915 32.8182 9.89504C33.6625 10.0379 34.4017 10.5443 34.84 11.28Z" fill="#FA87DA"/>
<path d="M27.4922 13.8327L26.6582 14.9038C25.6397 16.2127 24.2243 17.1561 22.6242 17.5924L22.1661 17.7203C20.7896 18.0998 19.5443 18.8511 18.5668 19.8918C17.5223 21.0125 16.1665 21.7953 14.6737 22.1395L13.4107 22.4301C12.7605 22.635 12.0504 22.4758 11.5499 22.013C11.0495 21.5501 10.8353 20.8546 10.9889 20.1904L11.2424 19.0232L11.4846 17.8984L11.536 17.8255L11.6081 17.7264C11.4637 17.6131 11.3418 17.4738 11.2487 17.3155C10.3895 15.8273 12.4907 13.0037 15.9471 11.0081C19.3981 9.01569 23.8333 9.52501 26.449 10.7182C26.693 10.8281 26.9218 10.969 27.1297 11.1376C27.5603 11.4282 27.8463 11.889 27.9155 12.4038C27.9847 12.9187 27.8307 13.4386 27.4922 13.8327Z" fill="#FFD3F3"/>
<path d="M21.7928 12.6657C22.4902 13.8736 21.566 15.6724 19.6841 16.759L19.3714 16.9395C16.1954 18.7732 13.0402 19.5595 11.2422 19.0231L11.4843 17.8983L11.5358 17.8255C12.7579 18.2486 15.5943 17.6822 18.7487 15.861L19.0615 15.6805C20.3609 14.9302 21.0069 13.7952 20.7143 13.2883C20.4217 12.7814 19.1157 12.7734 17.8162 13.5236C17.1437 13.8855 16.592 14.4365 16.2292 15.1085C16.0839 15.4214 15.7134 15.5582 15.3996 15.4149C15.2499 15.3461 15.1337 15.2204 15.0768 15.0658C15.0199 14.9111 15.0269 14.7402 15.0963 14.5907C15.5628 13.6803 16.2939 12.9323 17.1936 12.4452C19.0755 11.3587 21.0955 11.4578 21.7928 12.6657Z" fill="white"/>
</g>
<defs>
<clipPath id="clip0">
<rect width="36.1147" height="36.1147" fill="white" transform="translate(33.8854 6.0191)"/>
</clipPath>
<clipPath id="clip1">
<rect width="36.1147" height="36.1147" fill="white" transform="translate(0 18.0573) rotate(-30)"/>
</clipPath>
</defs>
</svg>
