<svg width="133" height="133" viewBox="0 0 133 133" fill="none" xmlns="http://www.w3.org/2000/svg">
<path d="M82.8677 86.4959C82.5768 86.6541 82.2573 86.7292 81.9404 86.7292C81.4364 86.7292 80.9377 86.5343 80.5636 86.1605L67.0713 72.6685C66.7025 72.2997 66.4999 71.8009 66.4999 71.2889C66.4999 71.8009 66.2972 72.2997 65.9284 72.6685L52.4361 86.1605C52.062 86.5343 51.5633 86.7292 51.0594 86.7292C50.7424 86.7292 50.4229 86.6541 50.132 86.4959L16.4951 68.2645V105.07C16.4949 105.137 16.4982 105.204 16.505 105.27C16.5079 105.299 16.5133 105.326 16.5172 105.354C16.5221 105.388 16.526 105.422 16.5328 105.456C16.5411 105.498 16.5525 105.539 16.5634 105.58C16.5686 105.6 16.5725 105.619 16.5783 105.638C16.591 105.68 16.6063 105.72 16.6216 105.761C16.6284 105.779 16.6341 105.798 16.6416 105.816C16.6567 105.853 16.6741 105.888 16.6913 105.924C16.7019 105.945 16.7115 105.967 16.7229 105.989C16.7385 106.018 16.7557 106.046 16.7726 106.074C16.7887 106.1 16.804 106.127 16.8211 106.154C16.8354 106.176 16.8515 106.196 16.8669 106.217C16.8889 106.248 16.9108 106.278 16.9347 106.308C16.9479 106.324 16.9627 106.339 16.9765 106.355C17.004 106.387 17.0315 106.418 17.0612 106.448C17.0767 106.464 17.0934 106.478 17.1095 106.493C17.1391 106.521 17.1682 106.549 17.1996 106.575C17.23 106.6 17.2622 106.623 17.2939 106.646C17.3126 106.66 17.33 106.675 17.3492 106.688C17.4051 106.725 17.463 106.76 17.5228 106.793L65.5733 132.766C65.8626 132.922 66.1811 133 66.4999 133C66.8186 133 67.1373 132.922 67.4262 132.766L115.477 106.793C115.536 106.76 115.594 106.725 115.65 106.688C115.669 106.675 115.687 106.66 115.706 106.646C115.737 106.623 115.77 106.6 115.8 106.575C115.831 106.549 115.86 106.521 115.89 106.493C115.906 106.478 115.923 106.464 115.938 106.448C115.968 106.418 115.995 106.387 116.023 106.355C116.036 106.339 116.051 106.324 116.065 106.308C116.088 106.278 116.11 106.248 116.132 106.217C116.148 106.196 116.164 106.176 116.178 106.154C116.195 106.127 116.211 106.101 116.227 106.074C116.244 106.046 116.261 106.018 116.276 105.989C116.288 105.967 116.297 105.945 116.308 105.924C116.325 105.888 116.342 105.853 116.358 105.816C116.365 105.798 116.371 105.779 116.378 105.761C116.393 105.721 116.408 105.68 116.421 105.638C116.427 105.619 116.431 105.6 116.436 105.58C116.447 105.539 116.458 105.498 116.466 105.456C116.473 105.422 116.477 105.388 116.482 105.354C116.486 105.326 116.492 105.299 116.494 105.27C116.501 105.204 116.504 105.137 116.504 105.07V68.2645L82.8677 86.4959Z" fill="#E2AE83"/>
<path d="M131.795 27.6407C131.883 28.2485 131.683 28.8613 131.249 29.2977L117.887 42.7879C117.513 43.1669 117.011 43.3643 116.505 43.3643C116.188 43.3643 115.871 43.2893 115.577 43.1305L67.5208 17.1539C66.9804 16.8606 66.609 16.3305 66.5207 15.7226C66.5077 15.6317 66.4999 15.5384 66.4999 15.4447C66.4999 15.4421 66.4999 15.4421 66.4999 15.4395C66.4999 14.928 66.7025 14.4287 67.0714 14.063L80.5636 0.570447C81.1715 -0.0400035 82.1092 -0.174822 82.8677 0.235608L130.795 26.2122C131.335 26.5026 131.704 27.0328 131.795 27.6407Z" fill="#D39C72"/>
<path d="M65.479 17.156C66.0193 16.8653 66.3908 16.3325 66.4791 15.7247C66.4921 15.6314 66.4999 15.5379 66.4999 15.4441C66.4999 15.5379 66.5077 15.6314 66.5207 15.7221C66.609 16.3299 66.9804 16.8601 67.5207 17.1534L115.577 43.13C115.871 43.2887 116.188 43.3638 116.505 43.3638C116.188 43.3638 115.871 43.442 115.577 43.6002L67.5207 69.5768C66.9804 69.868 66.609 70.4003 66.5207 71.0081C66.5077 71.1019 66.4999 71.1954 66.4999 71.2887C66.4999 71.1954 66.4921 71.1019 66.4791 71.0081C66.3908 70.4003 66.0193 69.868 65.479 69.5768L17.4223 43.6002C17.1651 43.4628 16.8897 43.3846 16.6144 43.3664C16.8897 43.3482 17.1651 43.2705 17.4223 43.1326L65.479 17.156Z" fill="#C48D69"/>
<path d="M66.4999 15.4392C66.4999 15.4418 66.4999 15.4418 66.4999 15.4444C66.4999 15.5382 66.4921 15.6317 66.4791 15.7249C66.3908 16.3328 66.0193 16.8656 65.479 17.1563L17.4223 43.1329C17.1651 43.2708 16.8897 43.3485 16.6144 43.3667C16.5598 43.3641 16.5027 43.3641 16.4481 43.3667C15.9572 43.3565 15.4766 43.1591 15.1129 42.7928L1.75057 29.3001C1.31676 28.8637 1.11674 28.2509 1.20506 27.643C1.29598 27.0378 1.66485 26.5076 2.20516 26.2143L50.132 0.237685C50.8905 -0.172745 51.8283 -0.0353288 52.4361 0.572524L65.9284 14.065C66.2973 14.4342 66.4973 14.9303 66.4999 15.4392Z" fill="#E2AE83"/>
<g clip-path="url(#clip0)">
<path d="M85.5089 29.1054L86.7915 35.6663C88.3261 43.5764 81.1944 50.7749 71.8015 50.7749H59.1986C50.0579 50.7749 42.9854 43.9322 44.1197 36.1926L44.9574 30.4769L85.5089 29.1054Z" fill="#AF8066"/>
<path d="M84.5377 31.4703C83.3114 32.8192 81.5641 33.5754 79.7413 33.546C79.0969 33.5453 78.4558 33.4555 77.836 33.2791C77.7587 33.2584 77.6789 33.2484 77.5988 33.2495C77.192 33.2205 76.8378 33.5249 76.8055 33.9315V37.4306C76.7338 38.3118 75.9678 38.9722 75.0856 38.9133C74.6431 38.9186 74.2138 38.7632 73.8772 38.4759C73.5634 38.2187 73.379 37.8362 73.373 37.4306V35.9479C73.305 35.0679 72.5412 34.4066 71.6605 34.4653C71.2176 34.4573 70.7874 34.6131 70.4521 34.9026C70.1384 35.1599 69.954 35.5423 69.948 35.9479V39.6547C69.8406 40.9827 68.6821 41.9756 67.3532 41.8787C66.6847 41.8859 66.0355 41.6547 65.5221 41.2264C65.0488 40.8403 64.7695 40.2654 64.7586 39.6547V38.0238C64.7586 35.5403 61.9192 33.7906 59.1762 34.5765H59.1688C57.8089 34.9715 56.3441 34.7463 55.1656 33.9612L54.4539 33.4867C53.2754 32.7017 51.8105 32.4764 50.4506 32.8714H50.4433C48.7127 33.3895 46.8383 32.8675 45.6245 31.5296L45.5653 31.4554C44.8914 30.6705 44.5667 29.6448 44.666 28.6151C44.7653 27.5854 45.2801 26.6407 46.0916 25.9991L46.5882 25.5691L47.6187 24.9983C47.6187 24.9983 83.3515 25.6507 83.433 25.5172L83.5146 25.5691H83.6554L84.0854 25.9398C84.9042 26.5966 85.4167 27.5615 85.5022 28.6077C85.5879 29.6539 85.239 30.6892 84.5377 31.4703Z" fill="#FFD3F3"/>
<path d="M83.9595 23.7528C83.9573 24.3793 83.7745 24.9919 83.4331 25.5172C83.3509 25.6521 83.2593 25.7809 83.1589 25.9027L83.1143 25.9472C81.6948 27.5364 79.4982 28.1853 77.4431 27.6226L75.2413 27.0518C73.3828 26.5705 71.4225 26.6583 69.6145 27.3038L65.3888 28.8236C63.2436 29.5842 60.8982 29.5606 58.7687 28.757L55.9441 27.6746C54.8595 27.2629 53.7089 27.052 52.5488 27.0519H51.1772C50.3584 27.0574 49.5581 26.8087 48.8865 26.3402L47.6187 24.9983C46.8329 23.7594 46.8072 22.1848 47.5521 20.9209C48.0771 20.0773 48.9592 19.5202 49.9466 19.4086L53.5421 18.8971H76.383L78.5848 19.2529C80.1017 19.4864 81.5251 20.1327 82.6992 21.1211C83.4848 21.7711 83.9455 22.7333 83.9595 23.7528Z" fill="#FA87DA"/>
<path d="M74.8632 22.0107L73.3656 22.6186C71.5362 23.362 69.515 23.492 67.6054 22.9893L67.0569 22.8485C65.4117 22.4204 63.6803 22.4537 62.0528 22.9449C60.3085 23.4787 58.4445 23.4787 56.7003 22.9449L55.225 22.4927C54.4326 22.3169 53.7952 21.73 53.5546 20.9548C53.3141 20.1796 53.5074 19.3349 54.0611 18.7415L55.0175 17.6888L55.9368 16.6732L56.0332 16.6287L56.1666 16.5694C56.0851 16.3666 56.0423 16.1504 56.0406 15.9318C56.0406 13.8857 59.8881 12.2251 64.6401 12.2251C69.3848 12.2251 73.6549 15.3906 75.6417 18.1781C75.8279 18.4368 75.9799 18.7183 76.0939 19.0158C76.3649 19.5718 76.3855 20.2172 76.1503 20.7893C75.9152 21.3614 75.4468 21.8058 74.8632 22.0107Z" fill="#FFD3F3"/>
<path d="M69.6812 17.4144C69.6812 19.075 67.6573 20.3797 65.07 20.3797H64.64C60.2735 20.3797 56.5519 19.3122 55.0173 17.6887L55.9366 16.673L56.033 16.6285C57.0413 17.7924 60.3031 18.897 64.64 18.897H65.07C66.8566 18.897 68.1984 18.1112 68.1984 17.4143C68.1984 16.7174 66.8566 15.9316 65.07 15.9316C64.1611 15.9044 63.2642 16.1441 62.4901 16.6211C62.154 16.8572 61.6904 16.7777 61.4522 16.4431C61.3388 16.283 61.2938 16.0843 61.3272 15.891C61.3606 15.6976 61.4696 15.5255 61.6301 15.4127C62.6532 14.7517 63.8523 14.4157 65.07 14.4489C67.6573 14.4489 69.6812 15.7537 69.6812 17.4144Z" fill="white"/>
</g>
<g clip-path="url(#clip1)">
<path d="M102.509 47.1054L103.791 53.6663C105.326 61.5764 98.1944 68.7749 88.8015 68.7749H76.1986C67.0579 68.7749 59.9854 61.9322 61.1197 54.1926L61.9574 48.4769L102.509 47.1054Z" fill="#AF8066"/>
<path d="M101.538 49.4703C100.311 50.8192 98.5641 51.5754 96.7413 51.546C96.0969 51.5453 95.4558 51.4555 94.836 51.2791C94.7587 51.2584 94.6789 51.2484 94.5988 51.2495C94.192 51.2205 93.8378 51.5249 93.8055 51.9315V55.4306C93.7338 56.3118 92.9678 56.9722 92.0856 56.9133C91.6431 56.9186 91.2138 56.7632 90.8772 56.4759C90.5634 56.2187 90.379 55.8362 90.373 55.4306V53.9479C90.305 53.0679 89.5412 52.4066 88.6605 52.4653C88.2176 52.4573 87.7874 52.6131 87.4521 52.9026C87.1384 53.1599 86.954 53.5423 86.948 53.9479V57.6547C86.8406 58.9827 85.6821 59.9756 84.3532 59.8787C83.6847 59.8859 83.0355 59.6547 82.5221 59.2264C82.0488 58.8403 81.7695 58.2654 81.7586 57.6547V56.0238C81.7586 53.5403 78.9192 51.7906 76.1762 52.5765H76.1688C74.8089 52.9715 73.3441 52.7463 72.1656 51.9612L71.4539 51.4867C70.2754 50.7017 68.8105 50.4764 67.4506 50.8714H67.4433C65.7127 51.3895 63.8383 50.8675 62.6245 49.5296L62.5653 49.4554C61.8914 48.6705 61.5667 47.6448 61.666 46.6151C61.7653 45.5854 62.2801 44.6407 63.0916 43.9991L63.5882 43.5691L64.6187 42.9983C64.6187 42.9983 100.352 43.6507 100.433 43.5172L100.515 43.5691H100.655L101.085 43.9398C101.904 44.5966 102.417 45.5615 102.502 46.6077C102.588 47.6539 102.239 48.6892 101.538 49.4703Z" fill="#FFD3F3"/>
<path d="M100.96 41.7528C100.957 42.3793 100.775 42.9919 100.433 43.5172C100.351 43.6521 100.259 43.7809 100.159 43.9027L100.114 43.9472C98.6948 45.5364 96.4982 46.1853 94.4431 45.6226L92.2413 45.0518C90.3828 44.5705 88.4225 44.6583 86.6145 45.3038L82.3888 46.8236C80.2436 47.5842 77.8982 47.5606 75.7687 46.757L72.9441 45.6746C71.8595 45.2629 70.7089 45.052 69.5488 45.0519H68.1772C67.3584 45.0574 66.5581 44.8087 65.8865 44.3402L64.6187 42.9983C63.8329 41.7594 63.8072 40.1848 64.5521 38.9209C65.0771 38.0773 65.9592 37.5202 66.9466 37.4086L70.5421 36.8971H93.383L95.5848 37.2529C97.1017 37.4864 98.5251 38.1327 99.6992 39.1211C100.485 39.7711 100.945 40.7333 100.96 41.7528Z" fill="#FA87DA"/>
<path d="M91.8632 40.0107L90.3656 40.6186C88.5362 41.362 86.515 41.492 84.6054 40.9893L84.0569 40.8485C82.4117 40.4204 80.6803 40.4537 79.0528 40.9449C77.3085 41.4787 75.4445 41.4787 73.7003 40.9449L72.225 40.4927C71.4326 40.3169 70.7952 39.73 70.5546 38.9548C70.3141 38.1796 70.5074 37.3349 71.0611 36.7415L72.0175 35.6888L72.9368 34.6732L73.0332 34.6287L73.1666 34.5694C73.0851 34.3666 73.0423 34.1504 73.0406 33.9318C73.0406 31.8857 76.8881 30.2251 81.6401 30.2251C86.3848 30.2251 90.6549 33.3906 92.6417 36.1781C92.8279 36.4368 92.9799 36.7183 93.0939 37.0158C93.3649 37.5718 93.3855 38.2172 93.1503 38.7893C92.9152 39.3614 92.4468 39.8058 91.8632 40.0107Z" fill="#FFD3F3"/>
<path d="M86.6812 35.4144C86.6812 37.075 84.6573 38.3797 82.07 38.3797H81.64C77.2735 38.3797 73.5519 37.3122 72.0173 35.6887L72.9366 34.673L73.033 34.6285C74.0413 35.7924 77.3031 36.897 81.64 36.897H82.07C83.8566 36.897 85.1984 36.1112 85.1984 35.4143C85.1984 34.7174 83.8566 33.9316 82.07 33.9316C81.1611 33.9044 80.2642 34.1441 79.4901 34.6211C79.154 34.8572 78.6904 34.7777 78.4522 34.4431C78.3388 34.283 78.2938 34.0843 78.3272 33.891C78.3606 33.6976 78.4696 33.5255 78.6301 33.4127C79.6532 32.7517 80.8523 32.4157 82.07 32.4489C84.6573 32.4489 86.6812 33.7537 86.6812 35.4144Z" fill="white"/>
</g>
<path d="M131.249 57.433C131.683 57.8694 131.883 58.4827 131.795 59.0906C131.704 59.6958 131.335 60.2255 130.795 60.5193L82.8677 86.4959C82.5768 86.6541 82.2573 86.7292 81.9404 86.7292C81.4364 86.7292 80.9377 86.5343 80.5636 86.1605L67.0714 72.6685C66.7025 72.2997 66.4999 71.8009 66.4999 71.2889C66.4999 71.1957 66.5077 71.1022 66.5207 71.0084C66.609 70.4005 66.9804 69.8683 67.5208 69.5771L115.577 43.6004C115.871 43.4423 116.188 43.3641 116.505 43.3641C117.011 43.3641 117.513 43.5641 117.887 43.941L131.249 57.433Z" fill="#F2C397"/>
<path d="M131.249 57.433L117.887 43.941C117.513 43.5641 117.011 43.3641 116.505 43.3641C116.188 43.3641 115.871 43.4422 115.578 43.6004L110.504 46.3446C110.797 46.1864 111.114 46.1082 111.431 46.1082C111.938 46.1082 112.439 46.3082 112.813 46.6852L126.175 60.1772C126.609 60.6136 126.81 61.2269 126.721 61.8347C126.63 62.44 126.261 62.9696 125.721 63.2634L130.795 60.5193C131.335 60.2255 131.704 59.6958 131.795 59.0906C131.883 58.4827 131.683 57.8694 131.249 57.433Z" fill="#E2AE83"/>
<g clip-path="url(#clip2)">
<path d="M69.5089 47.1054L70.7915 53.6663C72.3261 61.5764 65.1944 68.7749 55.8015 68.7749H43.1986C34.0579 68.7749 26.9854 61.9322 28.1197 54.1926L28.9574 48.4769L69.5089 47.1054Z" fill="#AF8066"/>
<path d="M68.5377 49.4703C67.3114 50.8192 65.5641 51.5754 63.7413 51.546C63.0969 51.5453 62.4558 51.4555 61.836 51.2791C61.7587 51.2584 61.6789 51.2484 61.5988 51.2495C61.192 51.2205 60.8378 51.5249 60.8055 51.9315V55.4306C60.7338 56.3118 59.9678 56.9722 59.0856 56.9133C58.6431 56.9186 58.2138 56.7632 57.8772 56.4759C57.5634 56.2187 57.379 55.8362 57.373 55.4306V53.9479C57.305 53.0679 56.5412 52.4066 55.6605 52.4653C55.2176 52.4573 54.7874 52.6131 54.4521 52.9026C54.1384 53.1599 53.954 53.5423 53.948 53.9479V57.6547C53.8406 58.9827 52.6821 59.9756 51.3532 59.8787C50.6847 59.8859 50.0355 59.6547 49.5221 59.2264C49.0488 58.8403 48.7695 58.2654 48.7586 57.6547V56.0238C48.7586 53.5403 45.9192 51.7906 43.1762 52.5765H43.1688C41.8089 52.9715 40.3441 52.7463 39.1656 51.9612L38.4539 51.4867C37.2754 50.7017 35.8105 50.4764 34.4506 50.8714H34.4433C32.7127 51.3895 30.8383 50.8675 29.6245 49.5296L29.5653 49.4554C28.8914 48.6705 28.5667 47.6448 28.666 46.6151C28.7653 45.5854 29.2801 44.6407 30.0916 43.9991L30.5882 43.5691L31.6187 42.9983C31.6187 42.9983 67.3515 43.6507 67.433 43.5172L67.5146 43.5691H67.6554L68.0854 43.9398C68.9042 44.5966 69.4167 45.5615 69.5022 46.6077C69.5879 47.6539 69.239 48.6892 68.5377 49.4703Z" fill="#FFD3F3"/>
<path d="M67.9595 41.7528C67.9573 42.3793 67.7745 42.9919 67.4331 43.5172C67.3509 43.6521 67.2593 43.7809 67.1589 43.9027L67.1143 43.9472C65.6948 45.5364 63.4982 46.1853 61.4431 45.6226L59.2413 45.0518C57.3828 44.5705 55.4225 44.6583 53.6145 45.3038L49.3888 46.8236C47.2436 47.5842 44.8982 47.5606 42.7687 46.757L39.9441 45.6746C38.8595 45.2629 37.7089 45.052 36.5488 45.0519H35.1772C34.3584 45.0574 33.5581 44.8087 32.8865 44.3402L31.6187 42.9983C30.8329 41.7594 30.8072 40.1848 31.5521 38.9209C32.0771 38.0773 32.9592 37.5202 33.9466 37.4086L37.5421 36.8971H60.383L62.5848 37.2529C64.1017 37.4864 65.5251 38.1327 66.6992 39.1211C67.4848 39.7711 67.9455 40.7333 67.9595 41.7528Z" fill="#FA87DA"/>
<path d="M58.8632 40.0107L57.3656 40.6186C55.5362 41.362 53.515 41.492 51.6054 40.9893L51.0569 40.8485C49.4117 40.4204 47.6803 40.4537 46.0528 40.9449C44.3085 41.4787 42.4445 41.4787 40.7003 40.9449L39.225 40.4927C38.4326 40.3169 37.7952 39.73 37.5546 38.9548C37.3141 38.1796 37.5074 37.3349 38.0611 36.7415L39.0175 35.6888L39.9368 34.6732L40.0332 34.6287L40.1666 34.5694C40.0851 34.3666 40.0423 34.1504 40.0406 33.9318C40.0406 31.8857 43.8881 30.2251 48.6401 30.2251C53.3848 30.2251 57.6549 33.3906 59.6417 36.1781C59.8279 36.4368 59.9799 36.7183 60.0939 37.0158C60.3649 37.5718 60.3855 38.2172 60.1503 38.7893C59.9152 39.3614 59.4468 39.8058 58.8632 40.0107Z" fill="#FFD3F3"/>
<path d="M53.6812 35.4144C53.6812 37.075 51.6573 38.3797 49.07 38.3797H48.64C44.2735 38.3797 40.5519 37.3122 39.0173 35.6887L39.9366 34.673L40.033 34.6285C41.0413 35.7924 44.3031 36.897 48.64 36.897H49.07C50.8566 36.897 52.1984 36.1112 52.1984 35.4143C52.1984 34.7174 50.8566 33.9316 49.07 33.9316C48.1611 33.9044 47.2642 34.1441 46.4901 34.6211C46.154 34.8572 45.6904 34.7777 45.4522 34.4431C45.3388 34.283 45.2938 34.0843 45.3272 33.891C45.3606 33.6976 45.4696 33.5255 45.6301 33.4127C46.6532 32.7517 47.8523 32.4157 49.07 32.4489C51.6573 32.4489 53.6812 33.7537 53.6812 35.4144Z" fill="white"/>
</g>
<path d="M66.4791 71.0084C66.4921 71.1022 66.4999 71.1957 66.4999 71.2889C66.4999 71.8009 66.2973 72.2997 65.9284 72.6685L52.4361 86.1605C52.0621 86.5343 51.5633 86.7292 51.0594 86.7292C50.7425 86.7292 50.423 86.6541 50.132 86.4959L2.20516 60.5193C1.66485 60.2255 1.29598 59.6958 1.20506 59.0906C1.11674 58.4827 1.31676 57.8694 1.75057 57.433L15.1129 43.941C15.4766 43.5747 15.9572 43.3773 16.4481 43.3667C16.4637 43.3693 16.4793 43.3693 16.4949 43.3693C16.5339 43.3693 16.5728 43.3693 16.6144 43.3667C16.8897 43.3848 17.1651 43.463 17.4223 43.6004L65.479 69.5771C66.0193 69.8683 66.3908 70.4005 66.4791 71.0084Z" fill="#FFD2A6"/>
<path d="M16.6144 43.3667C16.5728 43.3693 16.5338 43.3693 16.4949 43.3693C16.4793 43.3693 16.4637 43.3693 16.4481 43.3667C16.5027 43.3641 16.5598 43.3641 16.6144 43.3667Z" fill="#E2AE83"/>
<path d="M115.942 68.5694C115.916 68.6183 115.89 68.6364 115.863 68.612H115.863L108.711 72.4888V109.291C108.711 109.359 108.708 109.426 108.701 109.492C108.698 109.52 108.693 109.548 108.689 109.576C108.684 109.61 108.68 109.644 108.673 109.677C108.665 109.72 108.653 109.761 108.643 109.802C108.637 109.821 108.633 109.84 108.628 109.859C108.615 109.901 108.6 109.942 108.584 109.983C108.578 110.001 108.572 110.019 108.564 110.037C108.549 110.074 108.532 110.109 108.515 110.145C108.504 110.167 108.494 110.189 108.483 110.21C108.467 110.239 108.45 110.267 108.433 110.295C108.418 110.322 108.402 110.349 108.385 110.375C108.371 110.397 108.354 110.417 108.339 110.438C108.317 110.469 108.295 110.5 108.271 110.529C108.258 110.546 108.243 110.561 108.229 110.576C108.202 110.608 108.174 110.64 108.145 110.67C108.129 110.686 108.113 110.7 108.097 110.714C108.067 110.742 108.038 110.77 108.007 110.796C107.976 110.821 107.944 110.844 107.912 110.867C107.894 110.881 107.876 110.896 107.857 110.909C107.844 110.917 107.83 110.925 107.818 110.933L115.477 106.792C115.537 106.76 115.595 106.725 115.651 106.688C115.67 106.674 115.688 106.66 115.706 106.646C115.738 106.623 115.77 106.6 115.8 106.575C115.832 106.549 115.861 106.521 115.891 106.493C115.906 106.478 115.923 106.464 115.939 106.448C115.968 106.418 115.996 106.387 116.023 106.355C116.037 106.339 116.052 106.324 116.065 106.307C116.089 106.278 116.111 106.248 116.133 106.217C116.148 106.196 116.164 106.176 116.179 106.154C116.196 106.127 116.211 106.1 116.227 106.073C116.244 106.045 116.261 106.018 116.277 105.989C116.288 105.967 116.298 105.945 116.308 105.923C116.326 105.888 116.343 105.852 116.358 105.816C116.366 105.798 116.371 105.779 116.378 105.761C116.393 105.72 116.409 105.68 116.421 105.638C116.427 105.619 116.431 105.599 116.436 105.58C116.447 105.539 116.459 105.498 116.467 105.455C116.474 105.422 116.478 105.388 116.483 105.354C116.486 105.326 116.492 105.299 116.495 105.27C116.501 105.204 116.505 105.137 116.505 105.069V68.2645L115.942 68.5694Z" fill="#D39C72"/>
<path d="M65.9284 72.6685L52.4361 86.1605C52.062 86.5343 51.5633 86.7292 51.0594 86.7292C50.7424 86.7292 50.4229 86.6541 50.132 86.4959L16.4951 68.2645V105.07C16.4949 105.137 16.4982 105.204 16.505 105.27C16.5079 105.299 16.5133 105.326 16.5172 105.354C16.5221 105.388 16.526 105.422 16.5328 105.456C16.5411 105.498 16.5525 105.539 16.5634 105.58C16.5686 105.6 16.5725 105.619 16.5783 105.638C16.591 105.68 16.6063 105.72 16.6216 105.761C16.6284 105.779 16.6341 105.798 16.6416 105.816C16.6567 105.853 16.6741 105.888 16.6913 105.924C16.7019 105.945 16.7115 105.967 16.7229 105.989C16.7385 106.018 16.7557 106.046 16.7726 106.074C16.7887 106.1 16.804 106.127 16.8211 106.154C16.8354 106.176 16.8515 106.196 16.8669 106.217C16.8889 106.248 16.9108 106.278 16.9347 106.308C16.9479 106.324 16.9627 106.339 16.9765 106.355C17.004 106.387 17.0315 106.418 17.0612 106.448C17.0767 106.464 17.0934 106.478 17.1095 106.493C17.1391 106.521 17.1682 106.549 17.1996 106.575C17.23 106.6 17.2622 106.623 17.2939 106.646C17.3126 106.66 17.33 106.675 17.3492 106.688C17.4051 106.725 17.463 106.76 17.5228 106.793L65.5733 132.766C65.8626 132.922 66.1811 133 66.4999 133V71.2889C66.4999 71.8009 66.2972 72.2997 65.9284 72.6685Z" fill="#F2C397"/>
<defs>
<clipPath id="clip0">
<rect width="43" height="43" fill="white" transform="translate(44 10)"/>
</clipPath>
<clipPath id="clip1">
<rect width="43" height="43" fill="white" transform="translate(61 28)"/>
</clipPath>
<clipPath id="clip2">
<rect width="43" height="43" fill="white" transform="translate(28 28)"/>
</clipPath>
</defs>
</svg>
