<svg width="133" height="133" viewBox="0 0 133 133" fill="none" xmlns="http://www.w3.org/2000/svg">
<path d="M82.8677 86.4959C82.5768 86.6541 82.2573 86.7292 81.9404 86.7292C81.4364 86.7292 80.9377 86.5343 80.5636 86.1605L67.0713 72.6685C66.7025 72.2997 66.4999 71.8009 66.4999 71.2889C66.4999 71.8009 66.2972 72.2997 65.9284 72.6685L52.4361 86.1605C52.062 86.5343 51.5633 86.7292 51.0594 86.7292C50.7424 86.7292 50.4229 86.6541 50.132 86.4959L16.4951 68.2645V105.07C16.4949 105.137 16.4982 105.204 16.505 105.27C16.5079 105.299 16.5133 105.326 16.5172 105.354C16.5221 105.388 16.526 105.422 16.5328 105.456C16.5411 105.498 16.5525 105.539 16.5634 105.58C16.5686 105.6 16.5725 105.619 16.5783 105.638C16.591 105.68 16.6063 105.72 16.6216 105.761C16.6284 105.779 16.6341 105.798 16.6416 105.816C16.6567 105.853 16.6741 105.888 16.6913 105.924C16.7019 105.945 16.7115 105.967 16.7229 105.989C16.7385 106.018 16.7557 106.046 16.7726 106.074C16.7887 106.1 16.804 106.127 16.8211 106.154C16.8354 106.176 16.8515 106.196 16.8669 106.217C16.8889 106.248 16.9108 106.278 16.9347 106.308C16.9479 106.324 16.9627 106.339 16.9765 106.355C17.004 106.387 17.0315 106.418 17.0612 106.448C17.0767 106.464 17.0934 106.478 17.1095 106.493C17.1391 106.521 17.1682 106.549 17.1996 106.575C17.23 106.6 17.2622 106.623 17.2939 106.646C17.3126 106.66 17.33 106.675 17.3492 106.688C17.4051 106.725 17.463 106.76 17.5228 106.793L65.5733 132.766C65.8626 132.922 66.1811 133 66.4999 133C66.8186 133 67.1373 132.922 67.4262 132.766L115.477 106.793C115.536 106.76 115.594 106.725 115.65 106.688C115.669 106.675 115.687 106.66 115.706 106.646C115.737 106.623 115.77 106.6 115.8 106.575C115.831 106.549 115.86 106.521 115.89 106.493C115.906 106.478 115.923 106.464 115.938 106.448C115.968 106.418 115.995 106.387 116.023 106.355C116.036 106.339 116.051 106.324 116.065 106.308C116.088 106.278 116.11 106.248 116.132 106.217C116.148 106.196 116.164 106.176 116.178 106.154C116.195 106.127 116.211 106.101 116.227 106.074C116.244 106.046 116.261 106.018 116.276 105.989C116.288 105.967 116.297 105.945 116.308 105.924C116.325 105.888 116.342 105.853 116.358 105.816C116.365 105.798 116.371 105.779 116.378 105.761C116.393 105.721 116.408 105.68 116.421 105.638C116.427 105.619 116.431 105.6 116.436 105.58C116.447 105.539 116.458 105.498 116.466 105.456C116.473 105.422 116.477 105.388 116.482 105.354C116.486 105.326 116.492 105.299 116.494 105.27C116.501 105.204 116.504 105.137 116.504 105.07V68.2645L82.8677 86.4959Z" fill="#E2AE83"/>
<path d="M131.795 27.6407C131.883 28.2485 131.683 28.8613 131.249 29.2977L117.887 42.7879C117.513 43.1669 117.011 43.3643 116.505 43.3643C116.188 43.3643 115.871 43.2893 115.577 43.1305L67.5208 17.1539C66.9804 16.8606 66.609 16.3305 66.5207 15.7226C66.5077 15.6317 66.4999 15.5384 66.4999 15.4447C66.4999 15.4421 66.4999 15.4421 66.4999 15.4395C66.4999 14.928 66.7025 14.4287 67.0714 14.063L80.5636 0.570447C81.1715 -0.0400035 82.1092 -0.174822 82.8677 0.235608L130.795 26.2122C131.335 26.5026 131.704 27.0328 131.795 27.6407Z" fill="#D39C72"/>
<path d="M131.249 57.433C131.683 57.8694 131.883 58.4827 131.795 59.0906C131.704 59.6958 131.335 60.2255 130.795 60.5193L82.8677 86.4959C82.5768 86.6541 82.2573 86.7292 81.9404 86.7292C81.4364 86.7292 80.9377 86.5343 80.5636 86.1605L67.0714 72.6685C66.7025 72.2997 66.4999 71.8009 66.4999 71.2889C66.4999 71.1957 66.5077 71.1022 66.5207 71.0084C66.609 70.4005 66.9804 69.8683 67.5208 69.5771L115.577 43.6004C115.871 43.4423 116.188 43.3641 116.505 43.3641C117.011 43.3641 117.513 43.5641 117.887 43.941L131.249 57.433Z" fill="#F2C397"/>
<path d="M131.249 57.433L117.887 43.941C117.513 43.5641 117.011 43.3641 116.505 43.3641C116.188 43.3641 115.871 43.4422 115.577 43.6004L110.504 46.3446C110.797 46.1864 111.114 46.1082 111.431 46.1082C111.938 46.1082 112.439 46.3082 112.813 46.6852L126.175 60.1772C126.609 60.6136 126.81 61.2269 126.721 61.8347C126.63 62.44 126.261 62.9696 125.721 63.2634L130.795 60.5193C131.335 60.2255 131.704 59.6958 131.795 59.0906C131.883 58.4827 131.683 57.8694 131.249 57.433Z" fill="#E2AE83"/>
<path d="M66.4999 15.4392C66.4999 15.4418 66.4999 15.4418 66.4999 15.4444C66.4999 15.5382 66.4921 15.6317 66.4791 15.7249C66.3908 16.3328 66.0193 16.8656 65.479 17.1563L17.4223 43.1329C17.1651 43.2708 16.8897 43.3485 16.6144 43.3667C16.5598 43.3641 16.5027 43.3641 16.4481 43.3667C15.9572 43.3565 15.4766 43.1591 15.1129 42.7928L1.75057 29.3001C1.31676 28.8637 1.11674 28.2509 1.20506 27.643C1.29598 27.0378 1.66485 26.5076 2.20516 26.2143L50.132 0.237685C50.8905 -0.172745 51.8283 -0.0353288 52.4361 0.572524L65.9284 14.065C66.2973 14.4342 66.4973 14.9303 66.4999 15.4392Z" fill="#E2AE83"/>
<path d="M65.479 17.156C66.0193 16.8653 66.3908 16.3325 66.4791 15.7247C66.4921 15.6314 66.4999 15.5379 66.4999 15.4441C66.4999 15.5379 66.5077 15.6314 66.5207 15.7221C66.609 16.3299 66.9804 16.8601 67.5207 17.1534L115.577 43.13C115.871 43.2887 116.188 43.3638 116.505 43.3638C116.188 43.3638 115.871 43.442 115.577 43.6002L67.5207 69.5768C66.9804 69.868 66.609 70.4003 66.5207 71.0081C66.5077 71.1019 66.4999 71.1954 66.4999 71.2887C66.4999 71.1954 66.4921 71.1019 66.4791 71.0081C66.3908 70.4003 66.0193 69.868 65.479 69.5768L17.4223 43.6002C17.1651 43.4628 16.8897 43.3846 16.6144 43.3664C16.8897 43.3482 17.1651 43.2705 17.4223 43.1326L65.479 17.156Z" fill="#C48D69"/>
<g clip-path="url(#clip0)">
<path d="M75.5089 47.1054L76.7915 53.6663C78.3261 61.5764 71.1944 68.7749 61.8015 68.7749H49.1986C40.0579 68.7749 32.9854 61.9322 34.1197 54.1926L34.9574 48.4769L75.5089 47.1054Z" fill="#AF8066"/>
<path d="M74.5377 49.4703C73.3114 50.8192 71.5641 51.5754 69.7413 51.546C69.0969 51.5453 68.4558 51.4555 67.836 51.2791C67.7587 51.2584 67.6789 51.2484 67.5988 51.2495C67.192 51.2205 66.8378 51.5249 66.8055 51.9315V55.4306C66.7338 56.3118 65.9678 56.9722 65.0856 56.9133C64.6431 56.9186 64.2138 56.7632 63.8772 56.4759C63.5634 56.2187 63.379 55.8362 63.373 55.4306V53.9479C63.305 53.0679 62.5412 52.4066 61.6605 52.4653C61.2176 52.4573 60.7874 52.6131 60.4521 52.9026C60.1384 53.1599 59.954 53.5423 59.948 53.9479V57.6547C59.8406 58.9827 58.6821 59.9756 57.3532 59.8787C56.6847 59.8859 56.0355 59.6547 55.5221 59.2264C55.0488 58.8403 54.7695 58.2654 54.7586 57.6547V56.0238C54.7586 53.5403 51.9192 51.7906 49.1762 52.5765H49.1688C47.8089 52.9715 46.3441 52.7463 45.1656 51.9612L44.4539 51.4867C43.2754 50.7017 41.8105 50.4764 40.4506 50.8714H40.4433C38.7127 51.3895 36.8383 50.8675 35.6245 49.5296L35.5653 49.4554C34.8914 48.6705 34.5667 47.6448 34.666 46.6151C34.7653 45.5854 35.2801 44.6407 36.0916 43.9991L36.5882 43.5691L37.6187 42.9983C37.6187 42.9983 73.3515 43.6507 73.433 43.5172L73.5146 43.5691H73.6554L74.0854 43.9398C74.9042 44.5966 75.4167 45.5615 75.5022 46.6077C75.5879 47.6539 75.239 48.6892 74.5377 49.4703Z" fill="#FFD3F3"/>
<path d="M73.9595 41.7528C73.9573 42.3793 73.7745 42.9919 73.4331 43.5172C73.3509 43.6521 73.2593 43.7809 73.1589 43.9027L73.1143 43.9472C71.6948 45.5364 69.4982 46.1853 67.4431 45.6226L65.2413 45.0518C63.3828 44.5705 61.4225 44.6583 59.6145 45.3038L55.3888 46.8236C53.2436 47.5842 50.8982 47.5606 48.7687 46.757L45.9441 45.6746C44.8595 45.2629 43.7089 45.052 42.5488 45.0519H41.1772C40.3584 45.0574 39.5581 44.8087 38.8865 44.3402L37.6187 42.9983C36.8329 41.7594 36.8072 40.1848 37.5521 38.9209C38.0771 38.0773 38.9592 37.5202 39.9466 37.4086L43.5421 36.8971H66.383L68.5848 37.2529C70.1017 37.4864 71.5251 38.1327 72.6992 39.1211C73.4848 39.7711 73.9455 40.7333 73.9595 41.7528Z" fill="#FA87DA"/>
<path d="M64.8632 40.0107L63.3656 40.6186C61.5362 41.362 59.515 41.492 57.6054 40.9893L57.0569 40.8485C55.4117 40.4204 53.6803 40.4537 52.0528 40.9449C50.3085 41.4787 48.4445 41.4787 46.7003 40.9449L45.225 40.4927C44.4326 40.3169 43.7952 39.73 43.5546 38.9548C43.3141 38.1796 43.5074 37.3349 44.0611 36.7415L45.0175 35.6888L45.9368 34.6732L46.0332 34.6287L46.1666 34.5694C46.0851 34.3666 46.0423 34.1504 46.0406 33.9318C46.0406 31.8857 49.8881 30.2251 54.6401 30.2251C59.3848 30.2251 63.6549 33.3906 65.6417 36.1781C65.8279 36.4368 65.9799 36.7183 66.0939 37.0158C66.3649 37.5718 66.3855 38.2172 66.1503 38.7893C65.9152 39.3614 65.4468 39.8058 64.8632 40.0107Z" fill="#FFD3F3"/>
<path d="M59.6812 35.4144C59.6812 37.075 57.6573 38.3797 55.07 38.3797H54.64C50.2735 38.3797 46.5519 37.3122 45.0173 35.6887L45.9366 34.673L46.033 34.6285C47.0413 35.7924 50.3031 36.897 54.64 36.897H55.07C56.8566 36.897 58.1984 36.1112 58.1984 35.4143C58.1984 34.7174 56.8566 33.9316 55.07 33.9316C54.1611 33.9044 53.2642 34.1441 52.4901 34.6211C52.154 34.8572 51.6904 34.7777 51.4522 34.4431C51.3388 34.283 51.2938 34.0843 51.3272 33.891C51.3606 33.6976 51.4696 33.5255 51.6301 33.4127C52.6532 32.7517 53.8523 32.4157 55.07 32.4489C57.6573 32.4489 59.6812 33.7537 59.6812 35.4144Z" fill="white"/>
</g>
<path d="M66.4791 71.0084C66.4921 71.1022 66.4999 71.1957 66.4999 71.2889C66.4999 71.8009 66.2973 72.2997 65.9284 72.6685L52.4361 86.1605C52.0621 86.5343 51.5633 86.7292 51.0594 86.7292C50.7425 86.7292 50.423 86.6541 50.132 86.4959L2.20516 60.5193C1.66485 60.2255 1.29598 59.6958 1.20506 59.0906C1.11674 58.4827 1.31676 57.8694 1.75057 57.433L15.1129 43.941C15.4766 43.5747 15.9572 43.3773 16.4481 43.3667C16.4637 43.3693 16.4793 43.3693 16.4949 43.3693C16.5339 43.3693 16.5728 43.3693 16.6144 43.3667C16.8897 43.3848 17.1651 43.463 17.4223 43.6004L65.479 69.5771C66.0193 69.8683 66.3908 70.4005 66.4791 71.0084Z" fill="#FFD2A6"/>
<path d="M16.6144 43.3667C16.5728 43.3693 16.5338 43.3693 16.4949 43.3693C16.4793 43.3693 16.4637 43.3693 16.4481 43.3667C16.5027 43.3641 16.5598 43.3641 16.6144 43.3667Z" fill="#E2AE83"/>
<path d="M115.942 68.5694C115.916 68.6183 115.89 68.6364 115.863 68.612H115.863L108.711 72.4888V109.291C108.711 109.359 108.708 109.426 108.701 109.492C108.698 109.52 108.693 109.548 108.689 109.576C108.684 109.61 108.68 109.644 108.673 109.677C108.665 109.72 108.653 109.761 108.643 109.802C108.637 109.821 108.633 109.84 108.628 109.859C108.615 109.901 108.6 109.942 108.584 109.983C108.578 110.001 108.572 110.019 108.564 110.037C108.549 110.074 108.532 110.109 108.515 110.145C108.504 110.167 108.494 110.189 108.483 110.21C108.467 110.239 108.45 110.267 108.433 110.295C108.418 110.322 108.402 110.349 108.385 110.375C108.371 110.397 108.354 110.417 108.339 110.438C108.317 110.469 108.295 110.5 108.271 110.529C108.258 110.546 108.243 110.561 108.229 110.576C108.202 110.608 108.174 110.64 108.145 110.67C108.129 110.686 108.113 110.7 108.097 110.714C108.067 110.742 108.038 110.77 108.007 110.796C107.976 110.821 107.944 110.844 107.912 110.867C107.894 110.881 107.876 110.896 107.857 110.909C107.844 110.917 107.83 110.925 107.818 110.933L115.477 106.792C115.537 106.76 115.595 106.725 115.651 106.688C115.67 106.674 115.688 106.66 115.706 106.646C115.738 106.623 115.77 106.6 115.8 106.575C115.832 106.549 115.861 106.521 115.891 106.493C115.906 106.478 115.923 106.464 115.939 106.448C115.968 106.418 115.996 106.387 116.023 106.355C116.037 106.339 116.052 106.324 116.065 106.307C116.089 106.278 116.111 106.248 116.133 106.217C116.148 106.196 116.164 106.176 116.179 106.154C116.196 106.127 116.211 106.1 116.227 106.073C116.244 106.045 116.261 106.018 116.277 105.989C116.288 105.967 116.298 105.945 116.308 105.923C116.326 105.888 116.343 105.852 116.358 105.816C116.366 105.798 116.371 105.779 116.378 105.761C116.393 105.72 116.409 105.68 116.421 105.638C116.427 105.619 116.431 105.599 116.436 105.58C116.447 105.539 116.459 105.498 116.467 105.455C116.474 105.422 116.478 105.388 116.483 105.354C116.486 105.326 116.492 105.299 116.495 105.27C116.501 105.204 116.505 105.137 116.505 105.069V68.2645L115.942 68.5694Z" fill="#D39C72"/>
<path d="M65.9284 72.6685L52.4361 86.1605C52.062 86.5343 51.5633 86.7292 51.0594 86.7292C50.7424 86.7292 50.4229 86.6541 50.132 86.4959L16.4951 68.2645V105.07C16.4949 105.137 16.4982 105.204 16.505 105.27C16.5079 105.299 16.5133 105.326 16.5172 105.354C16.5221 105.388 16.526 105.422 16.5328 105.456C16.5411 105.498 16.5525 105.539 16.5634 105.58C16.5686 105.6 16.5725 105.619 16.5783 105.638C16.591 105.68 16.6063 105.72 16.6216 105.761C16.6284 105.779 16.6341 105.798 16.6416 105.816C16.6567 105.853 16.6741 105.888 16.6913 105.924C16.7019 105.945 16.7115 105.967 16.7229 105.989C16.7385 106.018 16.7557 106.046 16.7726 106.074C16.7887 106.1 16.804 106.127 16.8211 106.154C16.8354 106.176 16.8515 106.196 16.8669 106.217C16.8889 106.248 16.9108 106.278 16.9347 106.308C16.9479 106.324 16.9627 106.339 16.9765 106.355C17.004 106.387 17.0315 106.418 17.0612 106.448C17.0767 106.464 17.0934 106.478 17.1095 106.493C17.1391 106.521 17.1682 106.549 17.1996 106.575C17.23 106.6 17.2622 106.623 17.2939 106.646C17.3126 106.66 17.33 106.675 17.3492 106.688C17.4051 106.725 17.463 106.76 17.5228 106.793L65.5733 132.766C65.8626 132.922 66.1811 133 66.4999 133V71.2889C66.4999 71.8009 66.2972 72.2997 65.9284 72.6685Z" fill="#F2C397"/>
<defs>
<clipPath id="clip0">
<rect width="43" height="43" fill="white" transform="translate(34 28)"/>
</clipPath>
</defs>
</svg>
