<svg width="271" height="83" viewBox="0 0 271 83" fill="none" xmlns="http://www.w3.org/2000/svg">
<g filter="url(#filter0_d)">
<rect x="6" y="0.552185" width="265" height="76" rx="16" fill="#FFD3F3"/>
</g>
<path d="M68.82 49.7622C66.84 49.7622 65.02 49.3022 63.36 48.3822C61.72 47.4622 60.41 46.1822 59.43 44.5422C58.47 42.8822 57.99 41.0222 57.99 38.9622C57.99 36.9022 58.47 35.0522 59.43 33.4122C60.41 31.7722 61.72 30.4922 63.36 29.5722C65.02 28.6522 66.84 28.1922 68.82 28.1922C70.8 28.1922 72.61 28.6522 74.25 29.5722C75.91 30.4922 77.21 31.7722 78.15 33.4122C79.11 35.0522 79.59 36.9022 79.59 38.9622C79.59 41.0222 79.11 42.8822 78.15 44.5422C77.19 46.1822 75.89 47.4622 74.25 48.3822C72.61 49.3022 70.8 49.7622 68.82 49.7622ZM68.82 45.0822C70.5 45.0822 71.84 44.5222 72.84 43.4022C73.86 42.2822 74.37 40.8022 74.37 38.9622C74.37 37.1022 73.86 35.6222 72.84 34.5222C71.84 33.4022 70.5 32.8422 68.82 32.8422C67.12 32.8422 65.76 33.3922 64.74 34.4922C63.74 35.5922 63.24 37.0822 63.24 38.9622C63.24 40.8222 63.74 42.3122 64.74 43.4322C65.76 44.5322 67.12 45.0822 68.82 45.0822ZM87.574 35.6022C88.174 34.6822 88.924 33.9622 89.824 33.4422C90.724 32.9022 91.724 32.6322 92.824 32.6322V38.0622H91.414C90.134 38.0622 89.174 38.3422 88.534 38.9022C87.894 39.4422 87.574 40.4022 87.574 41.7822V49.5522H82.444V32.8122H87.574V35.6022ZM94.256 41.1522C94.256 39.4322 94.576 37.9222 95.216 36.6222C95.876 35.3222 96.766 34.3222 97.886 33.6222C99.006 32.9222 100.256 32.5722 101.636 32.5722C102.736 32.5722 103.736 32.8022 104.636 33.2622C105.556 33.7222 106.276 34.3422 106.796 35.1222V27.3522H111.926V49.5522H106.796V47.1522C106.316 47.9522 105.626 48.5922 104.726 49.0722C103.846 49.5522 102.816 49.7922 101.636 49.7922C100.256 49.7922 99.006 49.4422 97.886 48.7422C96.766 48.0222 95.876 47.0122 95.216 45.7122C94.576 44.3922 94.256 42.8722 94.256 41.1522ZM106.796 41.1822C106.796 39.9022 106.436 38.8922 105.716 38.1522C105.016 37.4122 104.156 37.0422 103.136 37.0422C102.116 37.0422 101.246 37.4122 100.526 38.1522C99.826 38.8722 99.476 39.8722 99.476 41.1522C99.476 42.4322 99.826 43.4522 100.526 44.2122C101.246 44.9522 102.116 45.3222 103.136 45.3222C104.156 45.3222 105.016 44.9522 105.716 44.2122C106.436 43.4722 106.796 42.4622 106.796 41.1822ZM131.417 40.9122C131.417 41.3922 131.387 41.8922 131.327 42.4122H119.717C119.797 43.4522 120.127 44.2522 120.707 44.8122C121.307 45.3522 122.037 45.6222 122.897 45.6222C124.177 45.6222 125.067 45.0822 125.567 44.0022H131.027C130.747 45.1022 130.237 46.0922 129.497 46.9722C128.777 47.8522 127.867 48.5422 126.767 49.0422C125.667 49.5422 124.437 49.7922 123.077 49.7922C121.437 49.7922 119.977 49.4422 118.697 48.7422C117.417 48.0422 116.417 47.0422 115.697 45.7422C114.977 44.4422 114.617 42.9222 114.617 41.1822C114.617 39.4422 114.967 37.9222 115.667 36.6222C116.387 35.3222 117.387 34.3222 118.667 33.6222C119.947 32.9222 121.417 32.5722 123.077 32.5722C124.697 32.5722 126.137 32.9122 127.397 33.5922C128.657 34.2722 129.637 35.2422 130.337 36.5022C131.057 37.7622 131.417 39.2322 131.417 40.9122ZM126.167 39.5622C126.167 38.6822 125.867 37.9822 125.267 37.4622C124.667 36.9422 123.917 36.6822 123.017 36.6822C122.157 36.6822 121.427 36.9322 120.827 37.4322C120.247 37.9322 119.887 38.6422 119.747 39.5622H126.167ZM139.254 35.6022C139.854 34.6822 140.604 33.9622 141.504 33.4422C142.404 32.9022 143.404 32.6322 144.504 32.6322V38.0622H143.094C141.814 38.0622 140.854 38.3422 140.214 38.9022C139.574 39.4422 139.254 40.4022 139.254 41.7822V49.5522H134.124V32.8122H139.254V35.6022ZM172.153 49.5522H167.023L158.443 36.5622V49.5522H153.313V28.4922H158.443L167.023 41.5422V28.4922H172.153V49.5522ZM183.492 49.7922C181.852 49.7922 180.372 49.4422 179.052 48.7422C177.752 48.0422 176.722 47.0422 175.962 45.7422C175.222 44.4422 174.852 42.9222 174.852 41.1822C174.852 39.4622 175.232 37.9522 175.992 36.6522C176.752 35.3322 177.792 34.3222 179.112 33.6222C180.432 32.9222 181.912 32.5722 183.552 32.5722C185.192 32.5722 186.672 32.9222 187.992 33.6222C189.312 34.3222 190.352 35.3322 191.112 36.6522C191.872 37.9522 192.252 39.4622 192.252 41.1822C192.252 42.9022 191.862 44.4222 191.082 45.7422C190.322 47.0422 189.272 48.0422 187.932 48.7422C186.612 49.4422 185.132 49.7922 183.492 49.7922ZM183.492 45.3522C184.472 45.3522 185.302 44.9922 185.982 44.2722C186.682 43.5522 187.032 42.5222 187.032 41.1822C187.032 39.8422 186.692 38.8122 186.012 38.0922C185.352 37.3722 184.532 37.0122 183.552 37.0122C182.552 37.0122 181.722 37.3722 181.062 38.0922C180.402 38.7922 180.072 39.8222 180.072 41.1822C180.072 42.5222 180.392 43.5522 181.032 44.2722C181.692 44.9922 182.512 45.3522 183.492 45.3522ZM219.003 32.8122L214.473 49.5522H208.803L206.163 38.6922L203.433 49.5522H197.793L193.233 32.8122H198.363L200.733 44.7822L203.553 32.8122H208.983L211.833 44.7222L214.173 32.8122H219.003Z" fill="#AF8066"/>
<defs>
<filter id="filter0_d" x="0" y="0.552185" width="271" height="82" filterUnits="userSpaceOnUse" color-interpolation-filters="sRGB">
<feFlood flood-opacity="0" result="BackgroundImageFix"/>
<feColorMatrix in="SourceAlpha" type="matrix" values="0 0 0 0 0 0 0 0 0 0 0 0 0 0 0 0 0 0 127 0" result="hardAlpha"/>
<feOffset dx="-6" dy="6"/>
<feComposite in2="hardAlpha" operator="out"/>
<feColorMatrix type="matrix" values="0 0 0 0 0.979311 0 0 0 0 0.53046 0 0 0 0 0.853633 0 0 0 1 0"/>
<feBlend mode="normal" in2="BackgroundImageFix" result="effect1_dropShadow"/>
<feBlend mode="normal" in="SourceGraphic" in2="effect1_dropShadow" result="shape"/>
</filter>
</defs>
</svg>
