<svg width="22" height="21" viewBox="0 0 22 21" fill="none" xmlns="http://www.w3.org/2000/svg">
<path d="M11.4806 3.03987C11.4806 2.69435 11.3434 2.36297 11.0991 2.11865C10.8547 1.87433 10.5234 1.73707 10.1778 1.73707C9.83231 1.73707 9.50094 1.87433 9.25662 2.11865C9.01229 2.36297 8.87503 2.69435 8.87503 3.03987V8.68534H3.22956C2.88404 8.68534 2.55266 8.8226 2.30834 9.06693C2.06402 9.31125 1.92676 9.64262 1.92676 9.98815C1.92676 10.3337 2.06402 10.665 2.30834 10.9094C2.55266 11.1537 2.88404 11.2909 3.22956 11.2909H8.87503V16.9364C8.87503 17.2819 9.01229 17.6133 9.25662 17.8576C9.50094 18.102 9.83231 18.2392 10.1778 18.2392C10.5234 18.2392 10.8547 18.102 11.0991 17.8576C11.3434 17.6133 11.4806 17.2819 11.4806 16.9364V11.2909H17.1261C17.4716 11.2909 17.803 11.1537 18.0473 10.9094C18.2917 10.665 18.4289 10.3337 18.4289 9.98815C18.4289 9.64262 18.2917 9.31125 18.0473 9.06693C17.803 8.8226 17.4716 8.68534 17.1261 8.68534H11.4806V3.03987Z" fill="#FA87DA"/>
</svg>
