<svg width="24" height="24" viewBox="0 0 24 24" fill="none" xmlns="http://www.w3.org/2000/svg">
<g clip-path="url(#clip0_46:2934)">
<path d="M7.65595 18.6675C6.27214 18.6675 5.15039 19.7893 5.15039 21.173C5.15039 22.5569 6.27219 23.6786 7.65595 23.6786C9.03976 23.6786 10.1615 22.5568 10.1615 21.173C10.1616 19.7893 9.03976 18.6675 7.65595 18.6675ZM7.65595 22.5651C6.88717 22.5651 6.26398 21.9419 6.26398 21.1731C6.26398 20.4043 6.88717 19.7811 7.65595 19.7811C8.42472 19.7811 9.04791 20.4043 9.04791 21.1731C9.04796 21.9419 8.42472 22.5651 7.65595 22.5651Z" fill="#AF8066"/>
<path d="M18.236 18.6675C16.8522 18.6675 15.7305 19.7893 15.7305 21.173C15.7305 22.5569 16.8523 23.6786 18.236 23.6786C19.6198 23.6786 20.7416 22.5568 20.7416 21.173C20.7416 19.7893 19.6198 18.6675 18.236 18.6675ZM18.236 22.5651C17.4673 22.5651 16.8441 21.9419 16.8441 21.1731C16.8441 20.4043 17.4673 19.7811 18.236 19.7811C19.0048 19.7811 19.628 20.4043 19.628 21.1731C19.628 21.9419 19.0048 22.5651 18.236 22.5651Z" fill="#AF8066"/>
<path d="M23.8865 4.05174C23.7706 3.92508 23.612 3.84578 23.4411 3.829L5.31742 3.57844L4.81631 2.04724C4.46328 1.02365 3.50475 0.332624 2.42206 0.321167H0.556797C0.249277 0.321167 0 0.570444 0 0.877963C0 1.18548 0.249277 1.43476 0.556797 1.43476H2.42206C3.02746 1.44813 3.56054 1.83686 3.7584 2.40917L7.29405 13.0718L7.01568 13.7121C6.70517 14.5128 6.79843 15.414 7.26623 16.1341C7.72957 16.8415 8.50905 17.278 9.35424 17.3034H20.1839C20.4915 17.3034 20.7407 17.0541 20.7407 16.7466C20.7407 16.4391 20.4915 16.1898 20.1839 16.1898H9.35419C8.87689 16.1779 8.43754 15.9268 8.18491 15.5217C7.9351 15.1215 7.88378 14.6285 8.04572 14.1853L8.26846 13.6842L19.989 12.4593C21.2764 12.3175 22.3355 11.3811 22.6338 10.1207L23.9702 4.52493C24.0304 4.36379 23.9984 4.18256 23.8865 4.05174ZM21.548 9.8702C21.3673 10.6816 20.6784 11.28 19.8498 11.3457L8.26846 12.5428L5.67934 4.69204L22.7451 4.94259L21.548 9.8702Z" fill="#AF8066"/>
</g>
<defs>
<clipPath id="clip0_46:2934">
<rect width="24" height="24" fill="white"/>
</clipPath>
</defs>
</svg>
