<svg width="35" height="36" viewBox="0 0 35 36" fill="none" xmlns="http://www.w3.org/2000/svg">
<g clip-path="url(#clip0)">
<path d="M11.1649 27.4236C9.1468 27.4236 7.51093 29.0595 7.51093 31.0775C7.51093 33.0956 9.14688 34.7315 11.1649 34.7315C13.1829 34.7315 14.8188 33.0955 14.8188 31.0775C14.8189 29.0595 13.1829 27.4236 11.1649 27.4236ZM11.1649 33.1075C10.0437 33.1075 9.13491 32.1987 9.13491 31.0776C9.13491 29.9565 10.0437 29.0477 11.1649 29.0477C12.286 29.0477 13.1948 29.9565 13.1948 31.0776C13.1949 32.1987 12.286 33.1075 11.1649 33.1075Z" fill="#AF8066"/>
<path d="M26.5928 27.4236C24.5747 27.4236 22.9388 29.0595 22.9388 31.0775C22.9388 33.0956 24.5748 34.7315 26.5928 34.7315C28.6108 34.7315 30.2467 33.0955 30.2467 31.0775C30.2467 29.0595 28.6108 27.4236 26.5928 27.4236ZM26.5928 33.1075C25.4717 33.1075 24.5628 32.1987 24.5628 31.0776C24.5628 29.9565 25.4717 29.0477 26.5928 29.0477C27.7139 29.0477 28.6227 29.9565 28.6227 31.0776C28.6228 32.1987 27.7139 33.1075 26.5928 33.1075Z" fill="#AF8066"/>
<path d="M34.8345 6.10881C34.6654 5.9241 34.434 5.80846 34.1849 5.78398L7.75455 5.41859L7.02376 3.18559C6.50893 1.69285 5.11108 0.685104 3.53216 0.668396H0.811995C0.363529 0.668396 0 1.03192 0 1.48039C0 1.92886 0.363529 2.29238 0.811995 2.29238H3.53216C4.41503 2.31189 5.19244 2.87879 5.48098 3.71339L10.6371 19.2631L10.2312 20.1968C9.77836 21.3645 9.91435 22.6787 10.5966 23.729C11.2723 24.7605 12.409 25.3971 13.6416 25.4342H29.4349C29.8833 25.4342 30.2469 25.0707 30.2469 24.6222C30.2469 24.1737 29.8833 23.8102 29.4349 23.8102H13.6415C12.9454 23.7928 12.3047 23.4266 11.9363 22.8358C11.572 22.2522 11.4972 21.5332 11.7333 20.887L12.0581 20.1562L29.1506 18.3698C31.0281 18.163 32.5725 16.7975 33.0076 14.9594L34.9564 6.79888C35.0442 6.56388 34.9976 6.29959 34.8345 6.10881ZM31.4242 14.5941C31.1606 15.7773 30.156 16.6501 28.9476 16.7459L12.0581 18.4916L8.28236 7.04258L33.1699 7.40797L31.4242 14.5941Z" fill="#AF8066"/>
</g>
<defs>
<clipPath id="clip0">
<rect width="35" height="35" fill="white" transform="translate(0 0.199951)"/>
</clipPath>
</defs>
</svg>
