<svg width="42" height="42" viewBox="0 0 42 42" fill="none" xmlns="http://www.w3.org/2000/svg">
<path d="M16.2925 11.7426C16.1303 11.9045 16.0016 12.0968 15.9138 12.3085C15.826 12.5202 15.7808 12.7472 15.7808 12.9763C15.7808 13.2055 15.826 13.4325 15.9138 13.6442C16.0016 13.8559 16.1303 14.0482 16.2925 14.2101L23.0825 21.0001L16.2925 27.7901C15.9653 28.1173 15.7815 28.5611 15.7815 29.0238C15.7815 29.4866 15.9653 29.9304 16.2925 30.2576C16.6198 30.5848 17.0635 30.7686 17.5263 30.7686C17.989 30.7686 18.4328 30.5848 18.76 30.2576L26.7925 22.2251C26.9548 22.0632 27.0835 21.8709 27.1713 21.6592C27.2591 21.4475 27.3043 21.2205 27.3043 20.9914C27.3043 20.7622 27.2591 20.5352 27.1713 20.3235C27.0835 20.1118 26.9548 19.9195 26.7925 19.7576L18.76 11.7251C18.095 11.0601 16.975 11.0601 16.2925 11.7426Z" fill="#AF8066"/>
</svg>
