<svg width="53" height="54" viewBox="0 0 53 54" fill="none" xmlns="http://www.w3.org/2000/svg">
<path d="M50.7918 6.74992C48.6771 8.26974 46.3357 9.43217 43.8577 10.1924C42.5277 8.63432 40.7601 7.52998 38.794 7.02875C36.8279 6.52753 34.7582 6.65361 32.8648 7.38994C30.9713 8.12627 29.3455 9.43732 28.2072 11.1458C27.0689 12.8542 26.473 14.8777 26.5002 16.9424V19.1924C22.6193 19.2949 18.7738 18.418 15.3061 16.6397C11.8385 14.8613 8.85628 12.2368 6.62516 8.99992C6.62516 8.99992 -2.20817 29.2499 17.6668 38.2499C13.1188 41.3953 7.70097 42.9725 2.2085 42.7499C22.0835 53.9999 46.3752 42.7499 46.3752 16.8749C46.3731 16.2482 46.314 15.623 46.1985 15.0074C48.4523 12.7428 50.0428 9.88352 50.7918 6.74992V6.74992Z" stroke="white" stroke-width="2" stroke-linecap="round" stroke-linejoin="round"/>
</svg>
